  0
SECTION
  2
BLOCKS
  0
ENDSEC
  0
SECTION
  2
ENTITIES
  0
LINE
  8
0
 10
-8.99635
 20
19.5427
 11
-8.7346
 21
19.4225
  0
LINE
  8
0
 10
-8.7346
 20
19.4225
 11
-8.47238
 21
19.3219
  0
LINE
  8
0
 10
-8.47238
 20
19.3219
 11
-8.21034
 21
19.2426
  0
LINE
  8
0
 10
-8.21034
 20
19.2426
 11
-7.94936
 21
19.1881
  0
LINE
  8
0
 10
-7.94936
 20
19.1881
 11
-7.69084
 21
19.1691
  0
LINE
  8
0
 10
-7.69084
 20
19.1691
 11
-7.06355
 21
19.2223
  0
LINE
  8
0
 10
-7.06355
 20
19.2223
 11
-6.98918
 21
18.6123
  0
LINE
  8
0
 10
-6.98918
 20
18.6123
 11
-6.98971
 21
18.6122
  0
LINE
  8
0
 10
-6.98971
 20
18.6122
 11
-6.98827
 21
18.6049
  0
LINE
  8
0
 10
-6.98827
 20
18.6049
 11
-6.98737
 21
18.5974
  0
LINE
  8
0
 10
-6.98737
 20
18.5974
 11
-6.98684
 21
18.5975
  0
LINE
  8
0
 10
-6.98684
 20
18.5975
 11
-6.86907
 21
17.9944
  0
LINE
  8
0
 10
-6.86907
 20
17.9944
 11
-7.48211
 21
17.8512
  0
LINE
  8
0
 10
-7.48211
 20
17.8512
 11
-7.72209
 21
17.7532
  0
LINE
  8
0
 10
-7.72209
 20
17.7532
 11
-7.95347
 21
17.6208
  0
LINE
  8
0
 10
-7.95347
 20
17.6208
 11
-8.17818
 21
17.4644
  0
LINE
  8
0
 10
-8.17818
 20
17.4644
 11
-8.39647
 21
17.2876
  0
LINE
  8
0
 10
-8.39647
 20
17.2876
 11
-8.60827
 21
17.0924
  0
LINE
  8
0
 10
-8.60827
 20
17.0924
 11
-8.35698
 21
16.3191
  0
LINE
  8
0
 10
-8.35698
 20
16.3191
 11
-8.07091
 21
16.2856
  0
LINE
  8
0
 10
-8.07091
 20
16.2856
 11
-7.79041
 21
16.2709
  0
LINE
  8
0
 10
-7.79041
 20
16.2709
 11
-7.5167
 21
16.2765
  0
LINE
  8
0
 10
-7.5167
 20
16.2765
 11
-7.25165
 21
16.3053
  0
LINE
  8
0
 10
-7.25165
 20
16.3053
 11
-6.99991
 21
16.3671
  0
LINE
  8
0
 10
-6.99991
 20
16.3671
 11
-6.41978
 21
16.6116
  0
LINE
  8
0
 10
-6.41978
 20
16.6116
 11
-6.16054
 21
16.0545
  0
LINE
  8
0
 10
-6.16054
 20
16.0545
 11
-6.16102
 21
16.0542
  0
LINE
  8
0
 10
-6.16102
 20
16.0542
 11
-6.15738
 21
16.0477
  0
LINE
  8
0
 10
-6.15738
 20
16.0477
 11
-6.15422
 21
16.0409
  0
LINE
  8
0
 10
-6.15422
 20
16.0409
 11
-6.15374
 21
16.0411
  0
LINE
  8
0
 10
-6.15374
 20
16.0411
 11
-5.85536
 21
15.5039
  0
LINE
  8
0
 10
-5.85536
 20
15.5039
 11
-6.39415
 21
15.1783
  0
LINE
  8
0
 10
-6.39415
 20
15.1783
 11
-6.59211
 21
15.0109
  0
LINE
  8
0
 10
-6.59211
 20
15.0109
 11
-6.77123
 21
14.8134
  0
LINE
  8
0
 10
-6.77123
 20
14.8134
 11
-6.93662
 21
14.5953
  0
LINE
  8
0
 10
-6.93662
 20
14.5953
 11
-7.08959
 21
14.3597
  0
LINE
  8
0
 10
-7.08959
 20
14.3597
 11
-7.23071
 21
14.1086
  0
LINE
  8
0
 10
-7.23071
 20
14.1086
 11
-6.75274
 21
13.4508
  0
LINE
  8
0
 10
-6.75274
 20
13.4508
 11
-6.47034
 21
13.5074
  0
LINE
  8
0
 10
-6.47034
 20
13.5074
 11
-6.19903
 21
13.5801
  0
LINE
  8
0
 10
-6.19903
 20
13.5801
 11
-5.94044
 21
13.67
  0
LINE
  8
0
 10
-5.94044
 20
13.67
 11
-5.69727
 21
13.7793
  0
LINE
  8
0
 10
-5.69727
 20
13.7793
 11
-5.47694
 21
13.9158
  0
LINE
  8
0
 10
-5.47694
 20
13.9158
 11
-5.00075
 21
14.3276
  0
LINE
  8
0
 10
-5.00075
 20
14.3276
 11
-4.58204
 21
13.8779
  0
LINE
  8
0
 10
-4.58204
 20
13.8779
 11
-4.58242
 21
13.8775
  0
LINE
  8
0
 10
-4.58242
 20
13.8775
 11
-4.57693
 21
13.8724
  0
LINE
  8
0
 10
-4.57693
 20
13.8724
 11
-4.57182
 21
13.8669
  0
LINE
  8
0
 10
-4.57182
 20
13.8669
 11
-4.57145
 21
13.8673
  0
LINE
  8
0
 10
-4.57145
 20
13.8673
 11
-4.12166
 21
13.4485
  0
LINE
  8
0
 10
-4.12166
 20
13.4485
 11
-4.53346
 21
12.9724
  0
LINE
  8
0
 10
-4.53346
 20
12.9724
 11
-4.67002
 21
12.752
  0
LINE
  8
0
 10
-4.67002
 20
12.752
 11
-4.77934
 21
12.5089
  0
LINE
  8
0
 10
-4.77934
 20
12.5089
 11
-4.86922
 21
12.2503
  0
LINE
  8
0
 10
-4.86922
 20
12.2503
 11
-4.94191
 21
11.979
  0
LINE
  8
0
 10
-4.94191
 20
11.979
 11
-4.99854
 21
11.6966
  0
LINE
  8
0
 10
-4.99854
 20
11.6966
 11
-4.34067
 21
11.2186
  0
LINE
  8
0
 10
-4.34067
 20
11.2186
 11
-4.08959
 21
11.3597
  0
LINE
  8
0
 10
-4.08959
 20
11.3597
 11
-3.85402
 21
11.5127
  0
LINE
  8
0
 10
-3.85402
 20
11.5127
 11
-3.63585
 21
11.6781
  0
LINE
  8
0
 10
-3.63585
 20
11.6781
 11
-3.43837
 21
11.8572
  0
LINE
  8
0
 10
-3.43837
 20
11.8572
 11
-3.27102
 21
12.0551
  0
LINE
  8
0
 10
-3.27102
 20
12.0551
 11
-2.94539
 21
12.5939
  0
LINE
  8
0
 10
-2.94539
 20
12.5939
 11
-2.40818
 21
12.2956
  0
LINE
  8
0
 10
-2.40818
 20
12.2956
 11
-2.40843
 21
12.2951
  0
LINE
  8
0
 10
-2.40843
 20
12.2951
 11
-2.40163
 21
12.2919
  0
LINE
  8
0
 10
-2.40163
 20
12.2919
 11
-2.39508
 21
12.2883
  0
LINE
  8
0
 10
-2.39508
 20
12.2883
 11
-2.39483
 21
12.2888
  0
LINE
  8
0
 10
-2.39483
 20
12.2888
 11
-1.83768
 21
12.0295
  0
LINE
  8
0
 10
-1.83768
 20
12.0295
 11
-2.08217
 21
11.4494
  0
LINE
  8
0
 10
-2.08217
 20
11.4494
 11
-2.14396
 21
11.1976
  0
LINE
  8
0
 10
-2.14396
 20
11.1976
 11
-2.17278
 21
10.9326
  0
LINE
  8
0
 10
-2.17278
 20
10.9326
 11
-2.17835
 21
10.6589
  0
LINE
  8
0
 10
-2.17835
 20
10.6589
 11
-2.16365
 21
10.3784
  0
LINE
  8
0
 10
-2.16365
 20
10.3784
 11
-2.13024
 21
10.0923
  0
LINE
  8
0
 10
-2.13024
 20
10.0923
 11
-1.35686
 21
9.84103
  0
LINE
  8
0
 10
-1.35686
 20
9.84103
 11
-1.16168
 21
10.0528
  0
LINE
  8
0
 10
-1.16168
 20
10.0528
 11
-0.984918
 21
10.2711
  0
LINE
  8
0
 10
-0.984918
 20
10.2711
 11
-0.828539
 21
10.4958
  0
LINE
  8
0
 10
-0.828539
 20
10.4958
 11
-0.696067
 21
10.7272
  0
LINE
  8
0
 10
-0.696067
 20
10.7272
 11
-0.598085
 21
10.9672
  0
LINE
  8
0
 10
-0.598085
 20
10.9672
 11
-0.454889
 21
11.5802
  0
LINE
  8
0
 10
-0.454889
 20
11.5802
 11
0.148232
 21
11.4625
  0
LINE
  8
0
 10
0.148232
 20
11.4625
 11
0.148148
 21
11.4619
  0
LINE
  8
0
 10
0.148148
 20
11.4619
 11
0.155605
 21
11.461
  0
LINE
  8
0
 10
0.155605
 20
11.461
 11
0.162949
 21
11.4596
  0
LINE
  8
0
 10
0.162949
 20
11.4596
 11
0.163032
 21
11.4601
  0
LINE
  8
0
 10
0.163032
 20
11.4601
 11
0.773026
 21
11.3857
  0
LINE
  8
0
 10
0.773026
 20
11.3857
 11
0.719772
 21
10.7585
  0
LINE
  8
0
 10
0.719772
 20
10.7585
 11
0.7388
 21
10.4999
  0
LINE
  8
0
 10
0.7388
 20
10.4999
 11
0.793289
 21
10.239
  0
LINE
  8
0
 10
0.793289
 20
10.239
 11
0.872574
 21
9.97692
  0
LINE
  8
0
 10
0.872574
 20
9.97692
 11
0.973236
 21
9.71469
  0
LINE
  8
0
 10
0.973236
 20
9.71469
 11
1.09341
 21
9.45294
  0
LINE
  8
0
 10
1.09341
 20
9.45294
 11
1.90658
 21
9.45294
  0
LINE
  8
0
 10
1.90658
 20
9.45294
 11
2.02676
 21
9.71469
  0
LINE
  8
0
 10
2.02676
 20
9.71469
 11
2.12743
 21
9.97692
  0
LINE
  8
0
 10
2.12743
 20
9.97692
 11
2.20671
 21
10.239
  0
LINE
  8
0
 10
2.20671
 20
10.239
 11
2.2612
 21
10.4999
  0
LINE
  8
0
 10
2.2612
 20
10.4999
 11
2.28023
 21
10.7585
  0
LINE
  8
0
 10
2.28023
 20
10.7585
 11
2.22697
 21
11.3857
  0
LINE
  8
0
 10
2.22697
 20
11.3857
 11
2.83697
 21
11.4601
  0
LINE
  8
0
 10
2.83697
 20
11.4601
 11
2.83705
 21
11.4596
  0
LINE
  8
0
 10
2.83705
 20
11.4596
 11
2.8444
 21
11.461
  0
LINE
  8
0
 10
2.8444
 20
11.461
 11
2.85185
 21
11.4619
  0
LINE
  8
0
 10
2.85185
 20
11.4619
 11
2.85177
 21
11.4625
  0
LINE
  8
0
 10
2.85177
 20
11.4625
 11
3.45489
 21
11.5802
  0
LINE
  8
0
 10
3.45489
 20
11.5802
 11
3.59809
 21
10.9672
  0
LINE
  8
0
 10
3.59809
 20
10.9672
 11
3.69607
 21
10.7272
  0
LINE
  8
0
 10
3.69607
 20
10.7272
 11
3.82854
 21
10.4958
  0
LINE
  8
0
 10
3.82854
 20
10.4958
 11
3.98492
 21
10.2711
  0
LINE
  8
0
 10
3.98492
 20
10.2711
 11
4.16168
 21
10.0528
  0
LINE
  8
0
 10
4.16168
 20
10.0528
 11
4.35686
 21
9.84103
  0
LINE
  8
0
 10
4.35686
 20
9.84103
 11
5.13024
 21
10.0923
  0
LINE
  8
0
 10
5.13024
 20
10.0923
 11
5.16365
 21
10.3784
  0
LINE
  8
0
 10
5.16365
 20
10.3784
 11
5.17835
 21
10.6589
  0
LINE
  8
0
 10
5.17835
 20
10.6589
 11
5.17278
 21
10.9326
  0
LINE
  8
0
 10
5.17278
 20
10.9326
 11
5.14396
 21
11.1976
  0
LINE
  8
0
 10
5.14396
 20
11.1976
 11
5.08217
 21
11.4494
  0
LINE
  8
0
 10
5.08217
 20
11.4494
 11
4.83768
 21
12.0295
  0
LINE
  8
0
 10
4.83768
 20
12.0295
 11
5.39483
 21
12.2888
  0
LINE
  8
0
 10
5.39483
 20
12.2888
 11
5.39508
 21
12.2883
  0
LINE
  8
0
 10
5.39508
 20
12.2883
 11
5.40163
 21
12.2919
  0
LINE
  8
0
 10
5.40163
 20
12.2919
 11
5.40843
 21
12.2951
  0
LINE
  8
0
 10
5.40843
 20
12.2951
 11
5.40818
 21
12.2956
  0
LINE
  8
0
 10
5.40818
 20
12.2956
 11
5.94539
 21
12.5939
  0
LINE
  8
0
 10
5.94539
 20
12.5939
 11
6.27102
 21
12.0551
  0
LINE
  8
0
 10
6.27102
 20
12.0551
 11
6.43837
 21
11.8572
  0
LINE
  8
0
 10
6.43837
 20
11.8572
 11
6.63585
 21
11.6781
  0
LINE
  8
0
 10
6.63585
 20
11.6781
 11
6.85402
 21
11.5127
  0
LINE
  8
0
 10
6.85402
 20
11.5127
 11
7.08959
 21
11.3597
  0
LINE
  8
0
 10
7.08959
 20
11.3597
 11
7.34067
 21
11.2186
  0
LINE
  8
0
 10
7.34067
 20
11.2186
 11
7.99854
 21
11.6966
  0
LINE
  8
0
 10
7.99854
 20
11.6966
 11
7.94191
 21
11.979
  0
LINE
  8
0
 10
7.94191
 20
11.979
 11
7.86922
 21
12.2503
  0
LINE
  8
0
 10
7.86922
 20
12.2503
 11
7.77934
 21
12.5089
  0
LINE
  8
0
 10
7.77934
 20
12.5089
 11
7.67002
 21
12.752
  0
LINE
  8
0
 10
7.67002
 20
12.752
 11
7.53346
 21
12.9724
  0
LINE
  8
0
 10
7.53346
 20
12.9724
 11
7.12166
 21
13.4485
  0
LINE
  8
0
 10
7.12166
 20
13.4485
 11
7.57145
 21
13.8673
  0
LINE
  8
0
 10
7.57145
 20
13.8673
 11
7.57182
 21
13.8669
  0
LINE
  8
0
 10
7.57182
 20
13.8669
 11
7.57693
 21
13.8724
  0
LINE
  8
0
 10
7.57693
 20
13.8724
 11
7.58242
 21
13.8775
  0
LINE
  8
0
 10
7.58242
 20
13.8775
 11
7.58204
 21
13.8779
  0
LINE
  8
0
 10
7.58204
 20
13.8779
 11
8.00075
 21
14.3276
  0
LINE
  8
0
 10
8.00075
 20
14.3276
 11
8.47694
 21
13.9158
  0
LINE
  8
0
 10
8.47694
 20
13.9158
 11
8.69727
 21
13.7793
  0
LINE
  8
0
 10
8.69727
 20
13.7793
 11
8.94044
 21
13.67
  0
LINE
  8
0
 10
8.94044
 20
13.67
 11
9.19903
 21
13.5801
  0
LINE
  8
0
 10
9.19903
 20
13.5801
 11
9.47034
 21
13.5074
  0
LINE
  8
0
 10
9.47034
 20
13.5074
 11
9.75274
 21
13.4508
  0
LINE
  8
0
 10
9.75274
 20
13.4508
 11
10.2307
 21
14.1086
  0
LINE
  8
0
 10
10.2307
 20
14.1086
 11
10.0896
 21
14.3597
  0
LINE
  8
0
 10
10.0896
 20
14.3597
 11
9.93662
 21
14.5953
  0
LINE
  8
0
 10
9.93662
 20
14.5953
 11
9.77123
 21
14.8134
  0
LINE
  8
0
 10
9.77123
 20
14.8134
 11
9.59211
 21
15.0109
  0
LINE
  8
0
 10
9.59211
 20
15.0109
 11
9.39415
 21
15.1783
  0
LINE
  8
0
 10
9.39415
 20
15.1783
 11
8.85536
 21
15.5039
  0
LINE
  8
0
 10
8.85536
 20
15.5039
 11
9.15374
 21
16.0411
  0
LINE
  8
0
 10
9.15374
 20
16.0411
 11
9.15422
 21
16.0409
  0
LINE
  8
0
 10
9.15422
 20
16.0409
 11
9.15738
 21
16.0477
  0
LINE
  8
0
 10
9.15738
 20
16.0477
 11
9.16102
 21
16.0542
  0
LINE
  8
0
 10
9.16102
 20
16.0542
 11
9.16054
 21
16.0545
  0
LINE
  8
0
 10
9.16054
 20
16.0545
 11
9.41978
 21
16.6116
  0
LINE
  8
0
 10
9.41978
 20
16.6116
 11
9.99991
 21
16.3671
  0
LINE
  8
0
 10
9.99991
 20
16.3671
 11
10.2516
 21
16.3053
  0
LINE
  8
0
 10
10.2516
 20
16.3053
 11
10.5167
 21
16.2765
  0
LINE
  8
0
 10
10.5167
 20
16.2765
 11
10.7904
 21
16.2709
  0
LINE
  8
0
 10
10.7904
 20
16.2709
 11
11.0709
 21
16.2856
  0
LINE
  8
0
 10
11.0709
 20
16.2856
 11
11.357
 21
16.3191
  0
LINE
  8
0
 10
11.357
 20
16.3191
 11
11.6083
 21
17.0924
  0
LINE
  8
0
 10
11.6083
 20
17.0924
 11
11.3965
 21
17.2876
  0
LINE
  8
0
 10
11.3965
 20
17.2876
 11
11.1782
 21
17.4644
  0
LINE
  8
0
 10
11.1782
 20
17.4644
 11
10.9535
 21
17.6208
  0
LINE
  8
0
 10
10.9535
 20
17.6208
 11
10.7221
 21
17.7532
  0
LINE
  8
0
 10
10.7221
 20
17.7532
 11
10.4821
 21
17.8512
  0
LINE
  8
0
 10
10.4821
 20
17.8512
 11
9.86907
 21
17.9944
  0
LINE
  8
0
 10
9.86907
 20
17.9944
 11
9.98684
 21
18.5975
  0
LINE
  8
0
 10
9.98684
 20
18.5975
 11
9.98737
 21
18.5974
  0
LINE
  8
0
 10
9.98737
 20
18.5974
 11
9.98827
 21
18.6049
  0
LINE
  8
0
 10
9.98827
 20
18.6049
 11
9.98971
 21
18.6122
  0
LINE
  8
0
 10
9.98971
 20
18.6122
 11
9.98918
 21
18.6123
  0
LINE
  8
0
 10
9.98918
 20
18.6123
 11
10.0636
 21
19.2223
  0
LINE
  8
0
 10
10.0636
 20
19.2223
 11
10.6908
 21
19.1691
  0
LINE
  8
0
 10
10.6908
 20
19.1691
 11
10.9494
 21
19.1881
  0
LINE
  8
0
 10
10.9494
 20
19.1881
 11
11.2103
 21
19.2426
  0
LINE
  8
0
 10
11.2103
 20
19.2426
 11
11.4724
 21
19.3219
  0
LINE
  8
0
 10
11.4724
 20
19.3219
 11
11.7346
 21
19.4225
  0
LINE
  8
0
 10
11.7346
 20
19.4225
 11
11.9964
 21
19.5427
  0
LINE
  8
0
 10
11.9964
 20
19.5427
 11
11.9964
 21
20.3559
  0
LINE
  8
0
 10
11.9964
 20
20.3559
 11
11.7346
 21
20.4761
  0
LINE
  8
0
 10
11.7346
 20
20.4761
 11
11.4724
 21
20.5767
  0
LINE
  8
0
 10
11.4724
 20
20.5767
 11
11.2103
 21
20.656
  0
LINE
  8
0
 10
11.2103
 20
20.656
 11
10.9494
 21
20.7105
  0
LINE
  8
0
 10
10.9494
 20
20.7105
 11
10.6908
 21
20.7295
  0
LINE
  8
0
 10
10.6908
 20
20.7295
 11
10.0636
 21
20.6763
  0
LINE
  8
0
 10
10.0636
 20
20.6763
 11
9.98918
 21
21.2863
  0
LINE
  8
0
 10
9.98918
 20
21.2863
 11
9.98971
 21
21.2863
  0
LINE
  8
0
 10
9.98971
 20
21.2863
 11
9.98827
 21
21.2937
  0
LINE
  8
0
 10
9.98827
 20
21.2937
 11
9.98737
 21
21.3011
  0
LINE
  8
0
 10
9.98737
 20
21.3011
 11
9.98684
 21
21.3011
  0
LINE
  8
0
 10
9.98684
 20
21.3011
 11
9.86907
 21
21.9042
  0
LINE
  8
0
 10
9.86907
 20
21.9042
 11
10.4821
 21
22.0474
  0
LINE
  8
0
 10
10.4821
 20
22.0474
 11
10.7221
 21
22.1454
  0
LINE
  8
0
 10
10.7221
 20
22.1454
 11
10.9535
 21
22.2778
  0
LINE
  8
0
 10
10.9535
 20
22.2778
 11
11.1782
 21
22.4342
  0
LINE
  8
0
 10
11.1782
 20
22.4342
 11
11.3965
 21
22.611
  0
LINE
  8
0
 10
11.3965
 20
22.611
 11
11.6083
 21
22.8062
  0
LINE
  8
0
 10
11.6083
 20
22.8062
 11
11.357
 21
23.5795
  0
LINE
  8
0
 10
11.357
 20
23.5795
 11
11.0709
 21
23.6129
  0
LINE
  8
0
 10
11.0709
 20
23.6129
 11
10.7904
 21
23.6276
  0
LINE
  8
0
 10
10.7904
 20
23.6276
 11
10.5167
 21
23.6221
  0
LINE
  8
0
 10
10.5167
 20
23.6221
 11
10.2516
 21
23.5933
  0
LINE
  8
0
 10
10.2516
 20
23.5933
 11
9.99991
 21
23.5315
  0
LINE
  8
0
 10
9.99991
 20
23.5315
 11
9.41978
 21
23.287
  0
LINE
  8
0
 10
9.41978
 20
23.287
 11
9.16054
 21
23.8441
  0
LINE
  8
0
 10
9.16054
 20
23.8441
 11
9.16102
 21
23.8444
  0
LINE
  8
0
 10
9.16102
 20
23.8444
 11
9.15738
 21
23.8509
  0
LINE
  8
0
 10
9.15738
 20
23.8509
 11
9.15422
 21
23.8577
  0
LINE
  8
0
 10
9.15422
 20
23.8577
 11
9.15374
 21
23.8575
  0
LINE
  8
0
 10
9.15374
 20
23.8575
 11
8.85536
 21
24.3947
  0
LINE
  8
0
 10
8.85536
 20
24.3947
 11
9.39415
 21
24.7203
  0
LINE
  8
0
 10
9.39415
 20
24.7203
 11
9.59211
 21
24.8877
  0
LINE
  8
0
 10
9.59211
 20
24.8877
 11
9.77123
 21
25.0852
  0
LINE
  8
0
 10
9.77123
 20
25.0852
 11
9.93662
 21
25.3033
  0
LINE
  8
0
 10
9.93662
 20
25.3033
 11
10.0896
 21
25.5389
  0
LINE
  8
0
 10
10.0896
 20
25.5389
 11
10.2307
 21
25.79
  0
LINE
  8
0
 10
10.2307
 20
25.79
 11
9.75274
 21
26.4478
  0
LINE
  8
0
 10
9.75274
 20
26.4478
 11
9.47034
 21
26.3912
  0
LINE
  8
0
 10
9.47034
 20
26.3912
 11
9.19903
 21
26.3185
  0
LINE
  8
0
 10
9.19903
 20
26.3185
 11
8.94044
 21
26.2286
  0
LINE
  8
0
 10
8.94044
 20
26.2286
 11
8.69727
 21
26.1193
  0
LINE
  8
0
 10
8.69727
 20
26.1193
 11
8.47694
 21
25.9828
  0
LINE
  8
0
 10
8.47694
 20
25.9828
 11
8.00075
 21
25.571
  0
LINE
  8
0
 10
8.00075
 20
25.571
 11
7.58204
 21
26.0207
  0
LINE
  8
0
 10
7.58204
 20
26.0207
 11
7.58242
 21
26.0211
  0
LINE
  8
0
 10
7.58242
 20
26.0211
 11
7.57693
 21
26.0262
  0
LINE
  8
0
 10
7.57693
 20
26.0262
 11
7.57182
 21
26.0317
  0
LINE
  8
0
 10
7.57182
 20
26.0317
 11
7.57145
 21
26.0313
  0
LINE
  8
0
 10
7.57145
 20
26.0313
 11
7.12166
 21
26.4501
  0
LINE
  8
0
 10
7.12166
 20
26.4501
 11
7.53346
 21
26.9262
  0
LINE
  8
0
 10
7.53346
 20
26.9262
 11
7.67002
 21
27.1466
  0
LINE
  8
0
 10
7.67002
 20
27.1466
 11
7.77934
 21
27.3897
  0
LINE
  8
0
 10
7.77934
 20
27.3897
 11
7.86922
 21
27.6483
  0
LINE
  8
0
 10
7.86922
 20
27.6483
 11
7.94191
 21
27.9196
  0
LINE
  8
0
 10
7.94191
 20
27.9196
 11
7.99854
 21
28.202
  0
LINE
  8
0
 10
7.99854
 20
28.202
 11
7.34067
 21
28.68
  0
LINE
  8
0
 10
7.34067
 20
28.68
 11
7.08959
 21
28.5389
  0
LINE
  8
0
 10
7.08959
 20
28.5389
 11
6.85402
 21
28.3859
  0
LINE
  8
0
 10
6.85402
 20
28.3859
 11
6.63585
 21
28.2205
  0
LINE
  8
0
 10
6.63585
 20
28.2205
 11
6.43837
 21
28.0414
  0
LINE
  8
0
 10
6.43837
 20
28.0414
 11
6.27102
 21
27.8434
  0
LINE
  8
0
 10
6.27102
 20
27.8434
 11
5.94539
 21
27.3047
  0
LINE
  8
0
 10
5.94539
 20
27.3047
 11
5.40818
 21
27.603
  0
LINE
  8
0
 10
5.40818
 20
27.603
 11
5.40843
 21
27.6035
  0
LINE
  8
0
 10
5.40843
 20
27.6035
 11
5.40163
 21
27.6067
  0
LINE
  8
0
 10
5.40163
 20
27.6067
 11
5.39508
 21
27.6103
  0
LINE
  8
0
 10
5.39508
 20
27.6103
 11
5.39483
 21
27.6098
  0
LINE
  8
0
 10
5.39483
 20
27.6098
 11
4.83768
 21
27.8691
  0
LINE
  8
0
 10
4.83768
 20
27.8691
 11
5.08217
 21
28.4492
  0
LINE
  8
0
 10
5.08217
 20
28.4492
 11
5.14396
 21
28.7009
  0
LINE
  8
0
 10
5.14396
 20
28.7009
 11
5.17278
 21
28.966
  0
LINE
  8
0
 10
5.17278
 20
28.966
 11
5.17835
 21
29.2397
  0
LINE
  8
0
 10
5.17835
 20
29.2397
 11
5.16365
 21
29.5202
  0
LINE
  8
0
 10
5.16365
 20
29.5202
 11
5.13024
 21
29.8063
  0
LINE
  8
0
 10
5.13024
 20
29.8063
 11
4.35686
 21
30.0576
  0
LINE
  8
0
 10
4.35686
 20
30.0576
 11
4.16168
 21
29.8458
  0
LINE
  8
0
 10
4.16168
 20
29.8458
 11
3.98492
 21
29.6275
  0
LINE
  8
0
 10
3.98492
 20
29.6275
 11
3.82854
 21
29.4028
  0
LINE
  8
0
 10
3.82854
 20
29.4028
 11
3.69607
 21
29.1714
  0
LINE
  8
0
 10
3.69607
 20
29.1714
 11
3.59809
 21
28.9314
  0
LINE
  8
0
 10
3.59809
 20
28.9314
 11
3.45489
 21
28.3184
  0
LINE
  8
0
 10
3.45489
 20
28.3184
 11
2.85177
 21
28.4361
  0
LINE
  8
0
 10
2.85177
 20
28.4361
 11
2.85185
 21
28.4367
  0
LINE
  8
0
 10
2.85185
 20
28.4367
 11
2.8444
 21
28.4376
  0
LINE
  8
0
 10
2.8444
 20
28.4376
 11
2.83705
 21
28.439
  0
LINE
  8
0
 10
2.83705
 20
28.439
 11
2.83697
 21
28.4385
  0
LINE
  8
0
 10
2.83697
 20
28.4385
 11
2.22697
 21
28.5128
  0
LINE
  8
0
 10
2.22697
 20
28.5128
 11
2.28023
 21
29.1401
  0
LINE
  8
0
 10
2.28023
 20
29.1401
 11
2.2612
 21
29.3987
  0
LINE
  8
0
 10
2.2612
 20
29.3987
 11
2.20671
 21
29.6596
  0
LINE
  8
0
 10
2.20671
 20
29.6596
 11
2.12743
 21
29.9217
  0
LINE
  8
0
 10
2.12743
 20
29.9217
 11
2.02676
 21
30.1839
  0
LINE
  8
0
 10
2.02676
 20
30.1839
 11
1.90659
 21
30.4456
  0
LINE
  8
0
 10
1.90659
 20
30.4456
 11
1.09341
 21
30.4456
  0
LINE
  8
0
 10
1.09341
 20
30.4456
 11
0.973236
 21
30.1839
  0
LINE
  8
0
 10
0.973236
 20
30.1839
 11
0.872574
 21
29.9217
  0
LINE
  8
0
 10
0.872574
 20
29.9217
 11
0.793289
 21
29.6596
  0
LINE
  8
0
 10
0.793289
 20
29.6596
 11
0.7388
 21
29.3987
  0
LINE
  8
0
 10
0.7388
 20
29.3987
 11
0.719772
 21
29.1401
  0
LINE
  8
0
 10
0.719772
 20
29.1401
 11
0.773026
 21
28.5128
  0
LINE
  8
0
 10
0.773026
 20
28.5128
 11
0.163032
 21
28.4385
  0
LINE
  8
0
 10
0.163032
 20
28.4385
 11
0.162949
 21
28.439
  0
LINE
  8
0
 10
0.162949
 20
28.439
 11
0.155605
 21
28.4376
  0
LINE
  8
0
 10
0.155605
 20
28.4376
 11
0.148148
 21
28.4367
  0
LINE
  8
0
 10
0.148148
 20
28.4367
 11
0.148232
 21
28.4361
  0
LINE
  8
0
 10
0.148232
 20
28.4361
 11
-0.454889
 21
28.3184
  0
LINE
  8
0
 10
-0.454889
 20
28.3184
 11
-0.598085
 21
28.9314
  0
LINE
  8
0
 10
-0.598085
 20
28.9314
 11
-0.696067
 21
29.1714
  0
LINE
  8
0
 10
-0.696067
 20
29.1714
 11
-0.828539
 21
29.4028
  0
LINE
  8
0
 10
-0.828539
 20
29.4028
 11
-0.984918
 21
29.6275
  0
LINE
  8
0
 10
-0.984918
 20
29.6275
 11
-1.16168
 21
29.8458
  0
LINE
  8
0
 10
-1.16168
 20
29.8458
 11
-1.35686
 21
30.0576
  0
LINE
  8
0
 10
-1.35686
 20
30.0576
 11
-2.13024
 21
29.8063
  0
LINE
  8
0
 10
-2.13024
 20
29.8063
 11
-2.16365
 21
29.5202
  0
LINE
  8
0
 10
-2.16365
 20
29.5202
 11
-2.17835
 21
29.2397
  0
LINE
  8
0
 10
-2.17835
 20
29.2397
 11
-2.17278
 21
28.966
  0
LINE
  8
0
 10
-2.17278
 20
28.966
 11
-2.14396
 21
28.7009
  0
LINE
  8
0
 10
-2.14396
 20
28.7009
 11
-2.08217
 21
28.4492
  0
LINE
  8
0
 10
-2.08217
 20
28.4492
 11
-1.83768
 21
27.8691
  0
LINE
  8
0
 10
-1.83768
 20
27.8691
 11
-2.39483
 21
27.6098
  0
LINE
  8
0
 10
-2.39483
 20
27.6098
 11
-2.39508
 21
27.6103
  0
LINE
  8
0
 10
-2.39508
 20
27.6103
 11
-2.40163
 21
27.6067
  0
LINE
  8
0
 10
-2.40163
 20
27.6067
 11
-2.40843
 21
27.6035
  0
LINE
  8
0
 10
-2.40843
 20
27.6035
 11
-2.40818
 21
27.603
  0
LINE
  8
0
 10
-2.40818
 20
27.603
 11
-2.94539
 21
27.3047
  0
LINE
  8
0
 10
-2.94539
 20
27.3047
 11
-3.27102
 21
27.8434
  0
LINE
  8
0
 10
-3.27102
 20
27.8434
 11
-3.43837
 21
28.0414
  0
LINE
  8
0
 10
-3.43837
 20
28.0414
 11
-3.63585
 21
28.2205
  0
LINE
  8
0
 10
-3.63585
 20
28.2205
 11
-3.85402
 21
28.3859
  0
LINE
  8
0
 10
-3.85402
 20
28.3859
 11
-4.08959
 21
28.5389
  0
LINE
  8
0
 10
-4.08959
 20
28.5389
 11
-4.34067
 21
28.68
  0
LINE
  8
0
 10
-4.34067
 20
28.68
 11
-4.99854
 21
28.202
  0
LINE
  8
0
 10
-4.99854
 20
28.202
 11
-4.94191
 21
27.9196
  0
LINE
  8
0
 10
-4.94191
 20
27.9196
 11
-4.86922
 21
27.6483
  0
LINE
  8
0
 10
-4.86922
 20
27.6483
 11
-4.77934
 21
27.3897
  0
LINE
  8
0
 10
-4.77934
 20
27.3897
 11
-4.67002
 21
27.1466
  0
LINE
  8
0
 10
-4.67002
 20
27.1466
 11
-4.53346
 21
26.9262
  0
LINE
  8
0
 10
-4.53346
 20
26.9262
 11
-4.12166
 21
26.4501
  0
LINE
  8
0
 10
-4.12166
 20
26.4501
 11
-4.57145
 21
26.0313
  0
LINE
  8
0
 10
-4.57145
 20
26.0313
 11
-4.57182
 21
26.0317
  0
LINE
  8
0
 10
-4.57182
 20
26.0317
 11
-4.57693
 21
26.0262
  0
LINE
  8
0
 10
-4.57693
 20
26.0262
 11
-4.58242
 21
26.0211
  0
LINE
  8
0
 10
-4.58242
 20
26.0211
 11
-4.58204
 21
26.0207
  0
LINE
  8
0
 10
-4.58204
 20
26.0207
 11
-5.00075
 21
25.571
  0
LINE
  8
0
 10
-5.00075
 20
25.571
 11
-5.47694
 21
25.9828
  0
LINE
  8
0
 10
-5.47694
 20
25.9828
 11
-5.69727
 21
26.1193
  0
LINE
  8
0
 10
-5.69727
 20
26.1193
 11
-5.94044
 21
26.2286
  0
LINE
  8
0
 10
-5.94044
 20
26.2286
 11
-6.19903
 21
26.3185
  0
LINE
  8
0
 10
-6.19903
 20
26.3185
 11
-6.47034
 21
26.3912
  0
LINE
  8
0
 10
-6.47034
 20
26.3912
 11
-6.75274
 21
26.4478
  0
LINE
  8
0
 10
-6.75274
 20
26.4478
 11
-7.23071
 21
25.79
  0
LINE
  8
0
 10
-7.23071
 20
25.79
 11
-7.08959
 21
25.5389
  0
LINE
  8
0
 10
-7.08959
 20
25.5389
 11
-6.93662
 21
25.3033
  0
LINE
  8
0
 10
-6.93662
 20
25.3033
 11
-6.77123
 21
25.0852
  0
LINE
  8
0
 10
-6.77123
 20
25.0852
 11
-6.59211
 21
24.8877
  0
LINE
  8
0
 10
-6.59211
 20
24.8877
 11
-6.39415
 21
24.7203
  0
LINE
  8
0
 10
-6.39415
 20
24.7203
 11
-5.85536
 21
24.3947
  0
LINE
  8
0
 10
-5.85536
 20
24.3947
 11
-6.15374
 21
23.8575
  0
LINE
  8
0
 10
-6.15374
 20
23.8575
 11
-6.15422
 21
23.8577
  0
LINE
  8
0
 10
-6.15422
 20
23.8577
 11
-6.15738
 21
23.8509
  0
LINE
  8
0
 10
-6.15738
 20
23.8509
 11
-6.16102
 21
23.8444
  0
LINE
  8
0
 10
-6.16102
 20
23.8444
 11
-6.16054
 21
23.8441
  0
LINE
  8
0
 10
-6.16054
 20
23.8441
 11
-6.41978
 21
23.287
  0
LINE
  8
0
 10
-6.41978
 20
23.287
 11
-6.99991
 21
23.5315
  0
LINE
  8
0
 10
-6.99991
 20
23.5315
 11
-7.25165
 21
23.5933
  0
LINE
  8
0
 10
-7.25165
 20
23.5933
 11
-7.5167
 21
23.6221
  0
LINE
  8
0
 10
-7.5167
 20
23.6221
 11
-7.79041
 21
23.6276
  0
LINE
  8
0
 10
-7.79041
 20
23.6276
 11
-8.07091
 21
23.6129
  0
LINE
  8
0
 10
-8.07091
 20
23.6129
 11
-8.35698
 21
23.5795
  0
LINE
  8
0
 10
-8.35698
 20
23.5795
 11
-8.60827
 21
22.8062
  0
LINE
  8
0
 10
-8.60827
 20
22.8062
 11
-8.39647
 21
22.611
  0
LINE
  8
0
 10
-8.39647
 20
22.611
 11
-8.17818
 21
22.4342
  0
LINE
  8
0
 10
-8.17818
 20
22.4342
 11
-7.95347
 21
22.2778
  0
LINE
  8
0
 10
-7.95347
 20
22.2778
 11
-7.72209
 21
22.1454
  0
LINE
  8
0
 10
-7.72209
 20
22.1454
 11
-7.48211
 21
22.0474
  0
LINE
  8
0
 10
-7.48211
 20
22.0474
 11
-6.86907
 21
21.9042
  0
LINE
  8
0
 10
-6.86907
 20
21.9042
 11
-6.98684
 21
21.3011
  0
LINE
  8
0
 10
-6.98684
 20
21.3011
 11
-6.98737
 21
21.3011
  0
LINE
  8
0
 10
-6.98737
 20
21.3011
 11
-6.98827
 21
21.2937
  0
LINE
  8
0
 10
-6.98827
 20
21.2937
 11
-6.98971
 21
21.2863
  0
LINE
  8
0
 10
-6.98971
 20
21.2863
 11
-6.98918
 21
21.2863
  0
LINE
  8
0
 10
-6.98918
 20
21.2863
 11
-7.06355
 21
20.6763
  0
LINE
  8
0
 10
-7.06355
 20
20.6763
 11
-7.69084
 21
20.7295
  0
LINE
  8
0
 10
-7.69084
 20
20.7295
 11
-7.94936
 21
20.7105
  0
LINE
  8
0
 10
-7.94936
 20
20.7105
 11
-8.21034
 21
20.656
  0
LINE
  8
0
 10
-8.21034
 20
20.656
 11
-8.47238
 21
20.5767
  0
LINE
  8
0
 10
-8.47238
 20
20.5767
 11
-8.7346
 21
20.4761
  0
LINE
  8
0
 10
-8.7346
 20
20.4761
 11
-8.99635
 21
20.3559
  0
LINE
  8
0
 10
-8.99635
 20
20.3559
 11
-8.99635
 21
19.5427
  0
LINE
  8
0
 10
-3.5
 20
14.9493
 11
-3.5
 21
24.9493
  0
LINE
  8
0
 10
-3.5
 20
24.9493
 11
6.5
 21
24.9493
  0
LINE
  8
0
 10
6.5
 20
24.9493
 11
6.5
 21
14.9493
  0
LINE
  8
0
 10
6.5
 20
14.9493
 11
-3.5
 21
14.9493
  0
LINE
  8
0
 10
-8.99635
 20
44.5427
 11
-8.7346
 21
44.4225
  0
LINE
  8
0
 10
-8.7346
 20
44.4225
 11
-8.47238
 21
44.3219
  0
LINE
  8
0
 10
-8.47238
 20
44.3219
 11
-8.21034
 21
44.2426
  0
LINE
  8
0
 10
-8.21034
 20
44.2426
 11
-7.94936
 21
44.1881
  0
LINE
  8
0
 10
-7.94936
 20
44.1881
 11
-7.69084
 21
44.1691
  0
LINE
  8
0
 10
-7.69084
 20
44.1691
 11
-7.06355
 21
44.2223
  0
LINE
  8
0
 10
-7.06355
 20
44.2223
 11
-6.98918
 21
43.6123
  0
LINE
  8
0
 10
-6.98918
 20
43.6123
 11
-6.98971
 21
43.6122
  0
LINE
  8
0
 10
-6.98971
 20
43.6122
 11
-6.98827
 21
43.6049
  0
LINE
  8
0
 10
-6.98827
 20
43.6049
 11
-6.98737
 21
43.5974
  0
LINE
  8
0
 10
-6.98737
 20
43.5974
 11
-6.98684
 21
43.5975
  0
LINE
  8
0
 10
-6.98684
 20
43.5975
 11
-6.86907
 21
42.9944
  0
LINE
  8
0
 10
-6.86907
 20
42.9944
 11
-7.48211
 21
42.8512
  0
LINE
  8
0
 10
-7.48211
 20
42.8512
 11
-7.72209
 21
42.7532
  0
LINE
  8
0
 10
-7.72209
 20
42.7532
 11
-7.95347
 21
42.6208
  0
LINE
  8
0
 10
-7.95347
 20
42.6208
 11
-8.17818
 21
42.4644
  0
LINE
  8
0
 10
-8.17818
 20
42.4644
 11
-8.39647
 21
42.2876
  0
LINE
  8
0
 10
-8.39647
 20
42.2876
 11
-8.60827
 21
42.0924
  0
LINE
  8
0
 10
-8.60827
 20
42.0924
 11
-8.35698
 21
41.3191
  0
LINE
  8
0
 10
-8.35698
 20
41.3191
 11
-8.07091
 21
41.2856
  0
LINE
  8
0
 10
-8.07091
 20
41.2856
 11
-7.79041
 21
41.2709
  0
LINE
  8
0
 10
-7.79041
 20
41.2709
 11
-7.5167
 21
41.2765
  0
LINE
  8
0
 10
-7.5167
 20
41.2765
 11
-7.25165
 21
41.3053
  0
LINE
  8
0
 10
-7.25165
 20
41.3053
 11
-6.99991
 21
41.3671
  0
LINE
  8
0
 10
-6.99991
 20
41.3671
 11
-6.41978
 21
41.6116
  0
LINE
  8
0
 10
-6.41978
 20
41.6116
 11
-6.16054
 21
41.0545
  0
LINE
  8
0
 10
-6.16054
 20
41.0545
 11
-6.16102
 21
41.0542
  0
LINE
  8
0
 10
-6.16102
 20
41.0542
 11
-6.15738
 21
41.0477
  0
LINE
  8
0
 10
-6.15738
 20
41.0477
 11
-6.15422
 21
41.0409
  0
LINE
  8
0
 10
-6.15422
 20
41.0409
 11
-6.15374
 21
41.0411
  0
LINE
  8
0
 10
-6.15374
 20
41.0411
 11
-5.85536
 21
40.5039
  0
LINE
  8
0
 10
-5.85536
 20
40.5039
 11
-6.39415
 21
40.1783
  0
LINE
  8
0
 10
-6.39415
 20
40.1783
 11
-6.59211
 21
40.0109
  0
LINE
  8
0
 10
-6.59211
 20
40.0109
 11
-6.77123
 21
39.8134
  0
LINE
  8
0
 10
-6.77123
 20
39.8134
 11
-6.93662
 21
39.5953
  0
LINE
  8
0
 10
-6.93662
 20
39.5953
 11
-7.08959
 21
39.3597
  0
LINE
  8
0
 10
-7.08959
 20
39.3597
 11
-7.23071
 21
39.1086
  0
LINE
  8
0
 10
-7.23071
 20
39.1086
 11
-6.75274
 21
38.4508
  0
LINE
  8
0
 10
-6.75274
 20
38.4508
 11
-6.47034
 21
38.5074
  0
LINE
  8
0
 10
-6.47034
 20
38.5074
 11
-6.19903
 21
38.5801
  0
LINE
  8
0
 10
-6.19903
 20
38.5801
 11
-5.94044
 21
38.67
  0
LINE
  8
0
 10
-5.94044
 20
38.67
 11
-5.69727
 21
38.7793
  0
LINE
  8
0
 10
-5.69727
 20
38.7793
 11
-5.47694
 21
38.9158
  0
LINE
  8
0
 10
-5.47694
 20
38.9158
 11
-5.00075
 21
39.3276
  0
LINE
  8
0
 10
-5.00075
 20
39.3276
 11
-4.58204
 21
38.8779
  0
LINE
  8
0
 10
-4.58204
 20
38.8779
 11
-4.58242
 21
38.8775
  0
LINE
  8
0
 10
-4.58242
 20
38.8775
 11
-4.57693
 21
38.8724
  0
LINE
  8
0
 10
-4.57693
 20
38.8724
 11
-4.57182
 21
38.8669
  0
LINE
  8
0
 10
-4.57182
 20
38.8669
 11
-4.57145
 21
38.8673
  0
LINE
  8
0
 10
-4.57145
 20
38.8673
 11
-4.12166
 21
38.4485
  0
LINE
  8
0
 10
-4.12166
 20
38.4485
 11
-4.53346
 21
37.9724
  0
LINE
  8
0
 10
-4.53346
 20
37.9724
 11
-4.67002
 21
37.752
  0
LINE
  8
0
 10
-4.67002
 20
37.752
 11
-4.77934
 21
37.5089
  0
LINE
  8
0
 10
-4.77934
 20
37.5089
 11
-4.86922
 21
37.2503
  0
LINE
  8
0
 10
-4.86922
 20
37.2503
 11
-4.94191
 21
36.979
  0
LINE
  8
0
 10
-4.94191
 20
36.979
 11
-4.99854
 21
36.6966
  0
LINE
  8
0
 10
-4.99854
 20
36.6966
 11
-4.34067
 21
36.2186
  0
LINE
  8
0
 10
-4.34067
 20
36.2186
 11
-4.08959
 21
36.3597
  0
LINE
  8
0
 10
-4.08959
 20
36.3597
 11
-3.85402
 21
36.5127
  0
LINE
  8
0
 10
-3.85402
 20
36.5127
 11
-3.63585
 21
36.6781
  0
LINE
  8
0
 10
-3.63585
 20
36.6781
 11
-3.43837
 21
36.8572
  0
LINE
  8
0
 10
-3.43837
 20
36.8572
 11
-3.27102
 21
37.0551
  0
LINE
  8
0
 10
-3.27102
 20
37.0551
 11
-2.94539
 21
37.5939
  0
LINE
  8
0
 10
-2.94539
 20
37.5939
 11
-2.40818
 21
37.2956
  0
LINE
  8
0
 10
-2.40818
 20
37.2956
 11
-2.40843
 21
37.2951
  0
LINE
  8
0
 10
-2.40843
 20
37.2951
 11
-2.40163
 21
37.2919
  0
LINE
  8
0
 10
-2.40163
 20
37.2919
 11
-2.39508
 21
37.2883
  0
LINE
  8
0
 10
-2.39508
 20
37.2883
 11
-2.39483
 21
37.2888
  0
LINE
  8
0
 10
-2.39483
 20
37.2888
 11
-1.83768
 21
37.0295
  0
LINE
  8
0
 10
-1.83768
 20
37.0295
 11
-2.08217
 21
36.4494
  0
LINE
  8
0
 10
-2.08217
 20
36.4494
 11
-2.14396
 21
36.1976
  0
LINE
  8
0
 10
-2.14396
 20
36.1976
 11
-2.17278
 21
35.9326
  0
LINE
  8
0
 10
-2.17278
 20
35.9326
 11
-2.17835
 21
35.6589
  0
LINE
  8
0
 10
-2.17835
 20
35.6589
 11
-2.16365
 21
35.3784
  0
LINE
  8
0
 10
-2.16365
 20
35.3784
 11
-2.13024
 21
35.0923
  0
LINE
  8
0
 10
-2.13024
 20
35.0923
 11
-1.35686
 21
34.841
  0
LINE
  8
0
 10
-1.35686
 20
34.841
 11
-1.16168
 21
35.0528
  0
LINE
  8
0
 10
-1.16168
 20
35.0528
 11
-0.984918
 21
35.2711
  0
LINE
  8
0
 10
-0.984918
 20
35.2711
 11
-0.828539
 21
35.4958
  0
LINE
  8
0
 10
-0.828539
 20
35.4958
 11
-0.696067
 21
35.7272
  0
LINE
  8
0
 10
-0.696067
 20
35.7272
 11
-0.598085
 21
35.9672
  0
LINE
  8
0
 10
-0.598085
 20
35.9672
 11
-0.454889
 21
36.5802
  0
LINE
  8
0
 10
-0.454889
 20
36.5802
 11
0.148232
 21
36.4625
  0
LINE
  8
0
 10
0.148232
 20
36.4625
 11
0.148148
 21
36.4619
  0
LINE
  8
0
 10
0.148148
 20
36.4619
 11
0.155605
 21
36.461
  0
LINE
  8
0
 10
0.155605
 20
36.461
 11
0.162949
 21
36.4596
  0
LINE
  8
0
 10
0.162949
 20
36.4596
 11
0.163032
 21
36.4601
  0
LINE
  8
0
 10
0.163032
 20
36.4601
 11
0.773026
 21
36.3857
  0
LINE
  8
0
 10
0.773026
 20
36.3857
 11
0.719772
 21
35.7585
  0
LINE
  8
0
 10
0.719772
 20
35.7585
 11
0.7388
 21
35.4999
  0
LINE
  8
0
 10
0.7388
 20
35.4999
 11
0.793289
 21
35.239
  0
LINE
  8
0
 10
0.793289
 20
35.239
 11
0.872574
 21
34.9769
  0
LINE
  8
0
 10
0.872574
 20
34.9769
 11
0.973236
 21
34.7147
  0
LINE
  8
0
 10
0.973236
 20
34.7147
 11
1.09341
 21
34.4529
  0
LINE
  8
0
 10
1.09341
 20
34.4529
 11
1.90658
 21
34.4529
  0
LINE
  8
0
 10
1.90658
 20
34.4529
 11
2.02676
 21
34.7147
  0
LINE
  8
0
 10
2.02676
 20
34.7147
 11
2.12743
 21
34.9769
  0
LINE
  8
0
 10
2.12743
 20
34.9769
 11
2.20671
 21
35.239
  0
LINE
  8
0
 10
2.20671
 20
35.239
 11
2.2612
 21
35.4999
  0
LINE
  8
0
 10
2.2612
 20
35.4999
 11
2.28023
 21
35.7585
  0
LINE
  8
0
 10
2.28023
 20
35.7585
 11
2.22697
 21
36.3857
  0
LINE
  8
0
 10
2.22697
 20
36.3857
 11
2.83697
 21
36.4601
  0
LINE
  8
0
 10
2.83697
 20
36.4601
 11
2.83705
 21
36.4596
  0
LINE
  8
0
 10
2.83705
 20
36.4596
 11
2.8444
 21
36.461
  0
LINE
  8
0
 10
2.8444
 20
36.461
 11
2.85185
 21
36.4619
  0
LINE
  8
0
 10
2.85185
 20
36.4619
 11
2.85177
 21
36.4625
  0
LINE
  8
0
 10
2.85177
 20
36.4625
 11
3.45489
 21
36.5802
  0
LINE
  8
0
 10
3.45489
 20
36.5802
 11
3.59809
 21
35.9672
  0
LINE
  8
0
 10
3.59809
 20
35.9672
 11
3.69607
 21
35.7272
  0
LINE
  8
0
 10
3.69607
 20
35.7272
 11
3.82854
 21
35.4958
  0
LINE
  8
0
 10
3.82854
 20
35.4958
 11
3.98492
 21
35.2711
  0
LINE
  8
0
 10
3.98492
 20
35.2711
 11
4.16168
 21
35.0528
  0
LINE
  8
0
 10
4.16168
 20
35.0528
 11
4.35686
 21
34.841
  0
LINE
  8
0
 10
4.35686
 20
34.841
 11
5.13024
 21
35.0923
  0
LINE
  8
0
 10
5.13024
 20
35.0923
 11
5.16365
 21
35.3784
  0
LINE
  8
0
 10
5.16365
 20
35.3784
 11
5.17835
 21
35.6589
  0
LINE
  8
0
 10
5.17835
 20
35.6589
 11
5.17278
 21
35.9326
  0
LINE
  8
0
 10
5.17278
 20
35.9326
 11
5.14396
 21
36.1976
  0
LINE
  8
0
 10
5.14396
 20
36.1976
 11
5.08217
 21
36.4494
  0
LINE
  8
0
 10
5.08217
 20
36.4494
 11
4.83768
 21
37.0295
  0
LINE
  8
0
 10
4.83768
 20
37.0295
 11
5.39483
 21
37.2888
  0
LINE
  8
0
 10
5.39483
 20
37.2888
 11
5.39508
 21
37.2883
  0
LINE
  8
0
 10
5.39508
 20
37.2883
 11
5.40163
 21
37.2919
  0
LINE
  8
0
 10
5.40163
 20
37.2919
 11
5.40843
 21
37.2951
  0
LINE
  8
0
 10
5.40843
 20
37.2951
 11
5.40818
 21
37.2956
  0
LINE
  8
0
 10
5.40818
 20
37.2956
 11
5.94539
 21
37.5939
  0
LINE
  8
0
 10
5.94539
 20
37.5939
 11
6.27102
 21
37.0551
  0
LINE
  8
0
 10
6.27102
 20
37.0551
 11
6.43837
 21
36.8572
  0
LINE
  8
0
 10
6.43837
 20
36.8572
 11
6.63585
 21
36.6781
  0
LINE
  8
0
 10
6.63585
 20
36.6781
 11
6.85402
 21
36.5127
  0
LINE
  8
0
 10
6.85402
 20
36.5127
 11
7.08959
 21
36.3597
  0
LINE
  8
0
 10
7.08959
 20
36.3597
 11
7.34067
 21
36.2186
  0
LINE
  8
0
 10
7.34067
 20
36.2186
 11
7.99854
 21
36.6966
  0
LINE
  8
0
 10
7.99854
 20
36.6966
 11
7.94191
 21
36.979
  0
LINE
  8
0
 10
7.94191
 20
36.979
 11
7.86922
 21
37.2503
  0
LINE
  8
0
 10
7.86922
 20
37.2503
 11
7.77934
 21
37.5089
  0
LINE
  8
0
 10
7.77934
 20
37.5089
 11
7.67002
 21
37.752
  0
LINE
  8
0
 10
7.67002
 20
37.752
 11
7.53346
 21
37.9724
  0
LINE
  8
0
 10
7.53346
 20
37.9724
 11
7.12166
 21
38.4485
  0
LINE
  8
0
 10
7.12166
 20
38.4485
 11
7.57145
 21
38.8673
  0
LINE
  8
0
 10
7.57145
 20
38.8673
 11
7.57182
 21
38.8669
  0
LINE
  8
0
 10
7.57182
 20
38.8669
 11
7.57693
 21
38.8724
  0
LINE
  8
0
 10
7.57693
 20
38.8724
 11
7.58242
 21
38.8775
  0
LINE
  8
0
 10
7.58242
 20
38.8775
 11
7.58204
 21
38.8779
  0
LINE
  8
0
 10
7.58204
 20
38.8779
 11
8.00075
 21
39.3276
  0
LINE
  8
0
 10
8.00075
 20
39.3276
 11
8.47694
 21
38.9158
  0
LINE
  8
0
 10
8.47694
 20
38.9158
 11
8.69727
 21
38.7793
  0
LINE
  8
0
 10
8.69727
 20
38.7793
 11
8.94044
 21
38.67
  0
LINE
  8
0
 10
8.94044
 20
38.67
 11
9.19903
 21
38.5801
  0
LINE
  8
0
 10
9.19903
 20
38.5801
 11
9.47034
 21
38.5074
  0
LINE
  8
0
 10
9.47034
 20
38.5074
 11
9.75274
 21
38.4508
  0
LINE
  8
0
 10
9.75274
 20
38.4508
 11
10.2307
 21
39.1086
  0
LINE
  8
0
 10
10.2307
 20
39.1086
 11
10.0896
 21
39.3597
  0
LINE
  8
0
 10
10.0896
 20
39.3597
 11
9.93662
 21
39.5953
  0
LINE
  8
0
 10
9.93662
 20
39.5953
 11
9.77123
 21
39.8134
  0
LINE
  8
0
 10
9.77123
 20
39.8134
 11
9.59211
 21
40.0109
  0
LINE
  8
0
 10
9.59211
 20
40.0109
 11
9.39415
 21
40.1783
  0
LINE
  8
0
 10
9.39415
 20
40.1783
 11
8.85536
 21
40.5039
  0
LINE
  8
0
 10
8.85536
 20
40.5039
 11
9.15374
 21
41.0411
  0
LINE
  8
0
 10
9.15374
 20
41.0411
 11
9.15422
 21
41.0409
  0
LINE
  8
0
 10
9.15422
 20
41.0409
 11
9.15738
 21
41.0477
  0
LINE
  8
0
 10
9.15738
 20
41.0477
 11
9.16102
 21
41.0542
  0
LINE
  8
0
 10
9.16102
 20
41.0542
 11
9.16054
 21
41.0545
  0
LINE
  8
0
 10
9.16054
 20
41.0545
 11
9.41978
 21
41.6116
  0
LINE
  8
0
 10
9.41978
 20
41.6116
 11
9.99991
 21
41.3671
  0
LINE
  8
0
 10
9.99991
 20
41.3671
 11
10.2516
 21
41.3053
  0
LINE
  8
0
 10
10.2516
 20
41.3053
 11
10.5167
 21
41.2765
  0
LINE
  8
0
 10
10.5167
 20
41.2765
 11
10.7904
 21
41.2709
  0
LINE
  8
0
 10
10.7904
 20
41.2709
 11
11.0709
 21
41.2856
  0
LINE
  8
0
 10
11.0709
 20
41.2856
 11
11.357
 21
41.3191
  0
LINE
  8
0
 10
11.357
 20
41.3191
 11
11.6083
 21
42.0924
  0
LINE
  8
0
 10
11.6083
 20
42.0924
 11
11.3965
 21
42.2876
  0
LINE
  8
0
 10
11.3965
 20
42.2876
 11
11.1782
 21
42.4644
  0
LINE
  8
0
 10
11.1782
 20
42.4644
 11
10.9535
 21
42.6208
  0
LINE
  8
0
 10
10.9535
 20
42.6208
 11
10.7221
 21
42.7532
  0
LINE
  8
0
 10
10.7221
 20
42.7532
 11
10.4821
 21
42.8512
  0
LINE
  8
0
 10
10.4821
 20
42.8512
 11
9.86907
 21
42.9944
  0
LINE
  8
0
 10
9.86907
 20
42.9944
 11
9.98684
 21
43.5975
  0
LINE
  8
0
 10
9.98684
 20
43.5975
 11
9.98737
 21
43.5974
  0
LINE
  8
0
 10
9.98737
 20
43.5974
 11
9.98827
 21
43.6049
  0
LINE
  8
0
 10
9.98827
 20
43.6049
 11
9.98971
 21
43.6122
  0
LINE
  8
0
 10
9.98971
 20
43.6122
 11
9.98918
 21
43.6123
  0
LINE
  8
0
 10
9.98918
 20
43.6123
 11
10.0636
 21
44.2223
  0
LINE
  8
0
 10
10.0636
 20
44.2223
 11
10.6908
 21
44.1691
  0
LINE
  8
0
 10
10.6908
 20
44.1691
 11
10.9494
 21
44.1881
  0
LINE
  8
0
 10
10.9494
 20
44.1881
 11
11.2103
 21
44.2426
  0
LINE
  8
0
 10
11.2103
 20
44.2426
 11
11.4724
 21
44.3219
  0
LINE
  8
0
 10
11.4724
 20
44.3219
 11
11.7346
 21
44.4225
  0
LINE
  8
0
 10
11.7346
 20
44.4225
 11
11.9964
 21
44.5427
  0
LINE
  8
0
 10
11.9964
 20
44.5427
 11
11.9964
 21
45.3559
  0
LINE
  8
0
 10
11.9964
 20
45.3559
 11
11.7346
 21
45.4761
  0
LINE
  8
0
 10
11.7346
 20
45.4761
 11
11.4724
 21
45.5767
  0
LINE
  8
0
 10
11.4724
 20
45.5767
 11
11.2103
 21
45.656
  0
LINE
  8
0
 10
11.2103
 20
45.656
 11
10.9494
 21
45.7105
  0
LINE
  8
0
 10
10.9494
 20
45.7105
 11
10.6908
 21
45.7295
  0
LINE
  8
0
 10
10.6908
 20
45.7295
 11
10.0636
 21
45.6763
  0
LINE
  8
0
 10
10.0636
 20
45.6763
 11
9.98918
 21
46.2863
  0
LINE
  8
0
 10
9.98918
 20
46.2863
 11
9.98971
 21
46.2863
  0
LINE
  8
0
 10
9.98971
 20
46.2863
 11
9.98827
 21
46.2937
  0
LINE
  8
0
 10
9.98827
 20
46.2937
 11
9.98737
 21
46.3011
  0
LINE
  8
0
 10
9.98737
 20
46.3011
 11
9.98684
 21
46.3011
  0
LINE
  8
0
 10
9.98684
 20
46.3011
 11
9.86907
 21
46.9042
  0
LINE
  8
0
 10
9.86907
 20
46.9042
 11
10.4821
 21
47.0474
  0
LINE
  8
0
 10
10.4821
 20
47.0474
 11
10.7221
 21
47.1454
  0
LINE
  8
0
 10
10.7221
 20
47.1454
 11
10.9535
 21
47.2778
  0
LINE
  8
0
 10
10.9535
 20
47.2778
 11
11.1782
 21
47.4342
  0
LINE
  8
0
 10
11.1782
 20
47.4342
 11
11.3965
 21
47.611
  0
LINE
  8
0
 10
11.3965
 20
47.611
 11
11.6083
 21
47.8062
  0
LINE
  8
0
 10
11.6083
 20
47.8062
 11
11.357
 21
48.5795
  0
LINE
  8
0
 10
11.357
 20
48.5795
 11
11.0709
 21
48.6129
  0
LINE
  8
0
 10
11.0709
 20
48.6129
 11
10.7904
 21
48.6276
  0
LINE
  8
0
 10
10.7904
 20
48.6276
 11
10.5167
 21
48.6221
  0
LINE
  8
0
 10
10.5167
 20
48.6221
 11
10.2516
 21
48.5933
  0
LINE
  8
0
 10
10.2516
 20
48.5933
 11
9.99991
 21
48.5315
  0
LINE
  8
0
 10
9.99991
 20
48.5315
 11
9.41978
 21
48.287
  0
LINE
  8
0
 10
9.41978
 20
48.287
 11
9.16054
 21
48.8441
  0
LINE
  8
0
 10
9.16054
 20
48.8441
 11
9.16102
 21
48.8444
  0
LINE
  8
0
 10
9.16102
 20
48.8444
 11
9.15738
 21
48.8509
  0
LINE
  8
0
 10
9.15738
 20
48.8509
 11
9.15422
 21
48.8577
  0
LINE
  8
0
 10
9.15422
 20
48.8577
 11
9.15374
 21
48.8575
  0
LINE
  8
0
 10
9.15374
 20
48.8575
 11
8.85536
 21
49.3947
  0
LINE
  8
0
 10
8.85536
 20
49.3947
 11
9.39415
 21
49.7203
  0
LINE
  8
0
 10
9.39415
 20
49.7203
 11
9.59211
 21
49.8877
  0
LINE
  8
0
 10
9.59211
 20
49.8877
 11
9.77123
 21
50.0852
  0
LINE
  8
0
 10
9.77123
 20
50.0852
 11
9.93662
 21
50.3033
  0
LINE
  8
0
 10
9.93662
 20
50.3033
 11
10.0896
 21
50.5389
  0
LINE
  8
0
 10
10.0896
 20
50.5389
 11
10.2307
 21
50.79
  0
LINE
  8
0
 10
10.2307
 20
50.79
 11
9.75274
 21
51.4478
  0
LINE
  8
0
 10
9.75274
 20
51.4478
 11
9.47034
 21
51.3912
  0
LINE
  8
0
 10
9.47034
 20
51.3912
 11
9.19903
 21
51.3185
  0
LINE
  8
0
 10
9.19903
 20
51.3185
 11
8.94044
 21
51.2286
  0
LINE
  8
0
 10
8.94044
 20
51.2286
 11
8.69727
 21
51.1193
  0
LINE
  8
0
 10
8.69727
 20
51.1193
 11
8.47694
 21
50.9828
  0
LINE
  8
0
 10
8.47694
 20
50.9828
 11
8.00075
 21
50.571
  0
LINE
  8
0
 10
8.00075
 20
50.571
 11
7.58204
 21
51.0207
  0
LINE
  8
0
 10
7.58204
 20
51.0207
 11
7.58242
 21
51.0211
  0
LINE
  8
0
 10
7.58242
 20
51.0211
 11
7.57693
 21
51.0262
  0
LINE
  8
0
 10
7.57693
 20
51.0262
 11
7.57182
 21
51.0317
  0
LINE
  8
0
 10
7.57182
 20
51.0317
 11
7.57145
 21
51.0313
  0
LINE
  8
0
 10
7.57145
 20
51.0313
 11
7.12166
 21
51.4501
  0
LINE
  8
0
 10
7.12166
 20
51.4501
 11
7.53346
 21
51.9262
  0
LINE
  8
0
 10
7.53346
 20
51.9262
 11
7.67002
 21
52.1466
  0
LINE
  8
0
 10
7.67002
 20
52.1466
 11
7.77934
 21
52.3897
  0
LINE
  8
0
 10
7.77934
 20
52.3897
 11
7.86922
 21
52.6483
  0
LINE
  8
0
 10
7.86922
 20
52.6483
 11
7.94191
 21
52.9196
  0
LINE
  8
0
 10
7.94191
 20
52.9196
 11
7.99854
 21
53.202
  0
LINE
  8
0
 10
7.99854
 20
53.202
 11
7.34067
 21
53.68
  0
LINE
  8
0
 10
7.34067
 20
53.68
 11
7.08959
 21
53.5389
  0
LINE
  8
0
 10
7.08959
 20
53.5389
 11
6.85402
 21
53.3859
  0
LINE
  8
0
 10
6.85402
 20
53.3859
 11
6.63585
 21
53.2205
  0
LINE
  8
0
 10
6.63585
 20
53.2205
 11
6.43837
 21
53.0414
  0
LINE
  8
0
 10
6.43837
 20
53.0414
 11
6.27102
 21
52.8434
  0
LINE
  8
0
 10
6.27102
 20
52.8434
 11
5.94539
 21
52.3047
  0
LINE
  8
0
 10
5.94539
 20
52.3047
 11
5.40818
 21
52.603
  0
LINE
  8
0
 10
5.40818
 20
52.603
 11
5.40843
 21
52.6035
  0
LINE
  8
0
 10
5.40843
 20
52.6035
 11
5.40163
 21
52.6067
  0
LINE
  8
0
 10
5.40163
 20
52.6067
 11
5.39508
 21
52.6103
  0
LINE
  8
0
 10
5.39508
 20
52.6103
 11
5.39483
 21
52.6098
  0
LINE
  8
0
 10
5.39483
 20
52.6098
 11
4.83768
 21
52.8691
  0
LINE
  8
0
 10
4.83768
 20
52.8691
 11
5.08217
 21
53.4492
  0
LINE
  8
0
 10
5.08217
 20
53.4492
 11
5.14396
 21
53.7009
  0
LINE
  8
0
 10
5.14396
 20
53.7009
 11
5.17278
 21
53.966
  0
LINE
  8
0
 10
5.17278
 20
53.966
 11
5.17835
 21
54.2397
  0
LINE
  8
0
 10
5.17835
 20
54.2397
 11
5.16365
 21
54.5202
  0
LINE
  8
0
 10
5.16365
 20
54.5202
 11
5.13024
 21
54.8063
  0
LINE
  8
0
 10
5.13024
 20
54.8063
 11
4.35686
 21
55.0576
  0
LINE
  8
0
 10
4.35686
 20
55.0576
 11
4.16168
 21
54.8458
  0
LINE
  8
0
 10
4.16168
 20
54.8458
 11
3.98492
 21
54.6275
  0
LINE
  8
0
 10
3.98492
 20
54.6275
 11
3.82854
 21
54.4028
  0
LINE
  8
0
 10
3.82854
 20
54.4028
 11
3.69607
 21
54.1714
  0
LINE
  8
0
 10
3.69607
 20
54.1714
 11
3.59809
 21
53.9314
  0
LINE
  8
0
 10
3.59809
 20
53.9314
 11
3.45489
 21
53.3184
  0
LINE
  8
0
 10
3.45489
 20
53.3184
 11
2.85177
 21
53.4361
  0
LINE
  8
0
 10
2.85177
 20
53.4361
 11
2.85185
 21
53.4367
  0
LINE
  8
0
 10
2.85185
 20
53.4367
 11
2.8444
 21
53.4376
  0
LINE
  8
0
 10
2.8444
 20
53.4376
 11
2.83705
 21
53.439
  0
LINE
  8
0
 10
2.83705
 20
53.439
 11
2.83697
 21
53.4385
  0
LINE
  8
0
 10
2.83697
 20
53.4385
 11
2.22697
 21
53.5128
  0
LINE
  8
0
 10
2.22697
 20
53.5128
 11
2.28023
 21
54.1401
  0
LINE
  8
0
 10
2.28023
 20
54.1401
 11
2.2612
 21
54.3987
  0
LINE
  8
0
 10
2.2612
 20
54.3987
 11
2.20671
 21
54.6596
  0
LINE
  8
0
 10
2.20671
 20
54.6596
 11
2.12743
 21
54.9217
  0
LINE
  8
0
 10
2.12743
 20
54.9217
 11
2.02676
 21
55.1839
  0
LINE
  8
0
 10
2.02676
 20
55.1839
 11
1.90659
 21
55.4456
  0
LINE
  8
0
 10
1.90659
 20
55.4456
 11
1.09341
 21
55.4456
  0
LINE
  8
0
 10
1.09341
 20
55.4456
 11
0.973236
 21
55.1839
  0
LINE
  8
0
 10
0.973236
 20
55.1839
 11
0.872574
 21
54.9217
  0
LINE
  8
0
 10
0.872574
 20
54.9217
 11
0.793289
 21
54.6596
  0
LINE
  8
0
 10
0.793289
 20
54.6596
 11
0.7388
 21
54.3987
  0
LINE
  8
0
 10
0.7388
 20
54.3987
 11
0.719772
 21
54.1401
  0
LINE
  8
0
 10
0.719772
 20
54.1401
 11
0.773026
 21
53.5128
  0
LINE
  8
0
 10
0.773026
 20
53.5128
 11
0.163032
 21
53.4385
  0
LINE
  8
0
 10
0.163032
 20
53.4385
 11
0.162949
 21
53.439
  0
LINE
  8
0
 10
0.162949
 20
53.439
 11
0.155605
 21
53.4376
  0
LINE
  8
0
 10
0.155605
 20
53.4376
 11
0.148148
 21
53.4367
  0
LINE
  8
0
 10
0.148148
 20
53.4367
 11
0.148232
 21
53.4361
  0
LINE
  8
0
 10
0.148232
 20
53.4361
 11
-0.454889
 21
53.3184
  0
LINE
  8
0
 10
-0.454889
 20
53.3184
 11
-0.598085
 21
53.9314
  0
LINE
  8
0
 10
-0.598085
 20
53.9314
 11
-0.696067
 21
54.1714
  0
LINE
  8
0
 10
-0.696067
 20
54.1714
 11
-0.828539
 21
54.4028
  0
LINE
  8
0
 10
-0.828539
 20
54.4028
 11
-0.984918
 21
54.6275
  0
LINE
  8
0
 10
-0.984918
 20
54.6275
 11
-1.16168
 21
54.8458
  0
LINE
  8
0
 10
-1.16168
 20
54.8458
 11
-1.35686
 21
55.0576
  0
LINE
  8
0
 10
-1.35686
 20
55.0576
 11
-2.13024
 21
54.8063
  0
LINE
  8
0
 10
-2.13024
 20
54.8063
 11
-2.16365
 21
54.5202
  0
LINE
  8
0
 10
-2.16365
 20
54.5202
 11
-2.17835
 21
54.2397
  0
LINE
  8
0
 10
-2.17835
 20
54.2397
 11
-2.17278
 21
53.966
  0
LINE
  8
0
 10
-2.17278
 20
53.966
 11
-2.14396
 21
53.7009
  0
LINE
  8
0
 10
-2.14396
 20
53.7009
 11
-2.08217
 21
53.4492
  0
LINE
  8
0
 10
-2.08217
 20
53.4492
 11
-1.83768
 21
52.8691
  0
LINE
  8
0
 10
-1.83768
 20
52.8691
 11
-2.39483
 21
52.6098
  0
LINE
  8
0
 10
-2.39483
 20
52.6098
 11
-2.39508
 21
52.6103
  0
LINE
  8
0
 10
-2.39508
 20
52.6103
 11
-2.40163
 21
52.6067
  0
LINE
  8
0
 10
-2.40163
 20
52.6067
 11
-2.40843
 21
52.6035
  0
LINE
  8
0
 10
-2.40843
 20
52.6035
 11
-2.40818
 21
52.603
  0
LINE
  8
0
 10
-2.40818
 20
52.603
 11
-2.94539
 21
52.3047
  0
LINE
  8
0
 10
-2.94539
 20
52.3047
 11
-3.27102
 21
52.8434
  0
LINE
  8
0
 10
-3.27102
 20
52.8434
 11
-3.43837
 21
53.0414
  0
LINE
  8
0
 10
-3.43837
 20
53.0414
 11
-3.63585
 21
53.2205
  0
LINE
  8
0
 10
-3.63585
 20
53.2205
 11
-3.85402
 21
53.3859
  0
LINE
  8
0
 10
-3.85402
 20
53.3859
 11
-4.08959
 21
53.5389
  0
LINE
  8
0
 10
-4.08959
 20
53.5389
 11
-4.34067
 21
53.68
  0
LINE
  8
0
 10
-4.34067
 20
53.68
 11
-4.99854
 21
53.202
  0
LINE
  8
0
 10
-4.99854
 20
53.202
 11
-4.94191
 21
52.9196
  0
LINE
  8
0
 10
-4.94191
 20
52.9196
 11
-4.86922
 21
52.6483
  0
LINE
  8
0
 10
-4.86922
 20
52.6483
 11
-4.77934
 21
52.3897
  0
LINE
  8
0
 10
-4.77934
 20
52.3897
 11
-4.67002
 21
52.1466
  0
LINE
  8
0
 10
-4.67002
 20
52.1466
 11
-4.53346
 21
51.9262
  0
LINE
  8
0
 10
-4.53346
 20
51.9262
 11
-4.12166
 21
51.4501
  0
LINE
  8
0
 10
-4.12166
 20
51.4501
 11
-4.57145
 21
51.0313
  0
LINE
  8
0
 10
-4.57145
 20
51.0313
 11
-4.57182
 21
51.0317
  0
LINE
  8
0
 10
-4.57182
 20
51.0317
 11
-4.57693
 21
51.0262
  0
LINE
  8
0
 10
-4.57693
 20
51.0262
 11
-4.58242
 21
51.0211
  0
LINE
  8
0
 10
-4.58242
 20
51.0211
 11
-4.58204
 21
51.0207
  0
LINE
  8
0
 10
-4.58204
 20
51.0207
 11
-5.00075
 21
50.571
  0
LINE
  8
0
 10
-5.00075
 20
50.571
 11
-5.47694
 21
50.9828
  0
LINE
  8
0
 10
-5.47694
 20
50.9828
 11
-5.69727
 21
51.1193
  0
LINE
  8
0
 10
-5.69727
 20
51.1193
 11
-5.94044
 21
51.2286
  0
LINE
  8
0
 10
-5.94044
 20
51.2286
 11
-6.19903
 21
51.3185
  0
LINE
  8
0
 10
-6.19903
 20
51.3185
 11
-6.47034
 21
51.3912
  0
LINE
  8
0
 10
-6.47034
 20
51.3912
 11
-6.75274
 21
51.4478
  0
LINE
  8
0
 10
-6.75274
 20
51.4478
 11
-7.23071
 21
50.79
  0
LINE
  8
0
 10
-7.23071
 20
50.79
 11
-7.08959
 21
50.5389
  0
LINE
  8
0
 10
-7.08959
 20
50.5389
 11
-6.93662
 21
50.3033
  0
LINE
  8
0
 10
-6.93662
 20
50.3033
 11
-6.77123
 21
50.0852
  0
LINE
  8
0
 10
-6.77123
 20
50.0852
 11
-6.59211
 21
49.8877
  0
LINE
  8
0
 10
-6.59211
 20
49.8877
 11
-6.39415
 21
49.7203
  0
LINE
  8
0
 10
-6.39415
 20
49.7203
 11
-5.85536
 21
49.3947
  0
LINE
  8
0
 10
-5.85536
 20
49.3947
 11
-6.15374
 21
48.8575
  0
LINE
  8
0
 10
-6.15374
 20
48.8575
 11
-6.15422
 21
48.8577
  0
LINE
  8
0
 10
-6.15422
 20
48.8577
 11
-6.15738
 21
48.8509
  0
LINE
  8
0
 10
-6.15738
 20
48.8509
 11
-6.16102
 21
48.8444
  0
LINE
  8
0
 10
-6.16102
 20
48.8444
 11
-6.16054
 21
48.8441
  0
LINE
  8
0
 10
-6.16054
 20
48.8441
 11
-6.41978
 21
48.287
  0
LINE
  8
0
 10
-6.41978
 20
48.287
 11
-6.99991
 21
48.5315
  0
LINE
  8
0
 10
-6.99991
 20
48.5315
 11
-7.25165
 21
48.5933
  0
LINE
  8
0
 10
-7.25165
 20
48.5933
 11
-7.5167
 21
48.6221
  0
LINE
  8
0
 10
-7.5167
 20
48.6221
 11
-7.79041
 21
48.6276
  0
LINE
  8
0
 10
-7.79041
 20
48.6276
 11
-8.07091
 21
48.6129
  0
LINE
  8
0
 10
-8.07091
 20
48.6129
 11
-8.35698
 21
48.5795
  0
LINE
  8
0
 10
-8.35698
 20
48.5795
 11
-8.60827
 21
47.8062
  0
LINE
  8
0
 10
-8.60827
 20
47.8062
 11
-8.39647
 21
47.611
  0
LINE
  8
0
 10
-8.39647
 20
47.611
 11
-8.17818
 21
47.4342
  0
LINE
  8
0
 10
-8.17818
 20
47.4342
 11
-7.95347
 21
47.2778
  0
LINE
  8
0
 10
-7.95347
 20
47.2778
 11
-7.72209
 21
47.1454
  0
LINE
  8
0
 10
-7.72209
 20
47.1454
 11
-7.48211
 21
47.0474
  0
LINE
  8
0
 10
-7.48211
 20
47.0474
 11
-6.86907
 21
46.9042
  0
LINE
  8
0
 10
-6.86907
 20
46.9042
 11
-6.98684
 21
46.3011
  0
LINE
  8
0
 10
-6.98684
 20
46.3011
 11
-6.98737
 21
46.3011
  0
LINE
  8
0
 10
-6.98737
 20
46.3011
 11
-6.98827
 21
46.2937
  0
LINE
  8
0
 10
-6.98827
 20
46.2937
 11
-6.98971
 21
46.2863
  0
LINE
  8
0
 10
-6.98971
 20
46.2863
 11
-6.98918
 21
46.2863
  0
LINE
  8
0
 10
-6.98918
 20
46.2863
 11
-7.06355
 21
45.6763
  0
LINE
  8
0
 10
-7.06355
 20
45.6763
 11
-7.69084
 21
45.7295
  0
LINE
  8
0
 10
-7.69084
 20
45.7295
 11
-7.94936
 21
45.7105
  0
LINE
  8
0
 10
-7.94936
 20
45.7105
 11
-8.21034
 21
45.656
  0
LINE
  8
0
 10
-8.21034
 20
45.656
 11
-8.47238
 21
45.5767
  0
LINE
  8
0
 10
-8.47238
 20
45.5767
 11
-8.7346
 21
45.4761
  0
LINE
  8
0
 10
-8.7346
 20
45.4761
 11
-8.99635
 21
45.3559
  0
LINE
  8
0
 10
-8.99635
 20
45.3559
 11
-8.99635
 21
44.5427
  0
LINE
  8
0
 10
0.0204582
 20
44.7024
 11
0.0204582
 21
45.1962
  0
LINE
  8
0
 10
0.0204582
 20
45.1962
 11
0.18079
 21
45.6632
  0
LINE
  8
0
 10
0.18079
 20
45.6632
 11
0.484078
 21
46.0529
  0
LINE
  8
0
 10
0.484078
 20
46.0529
 11
0.897457
 21
46.323
  0
LINE
  8
0
 10
0.897457
 20
46.323
 11
1.37613
 21
46.4442
  0
LINE
  8
0
 10
1.37613
 20
46.4442
 11
1.86823
 21
46.4034
  0
LINE
  8
0
 10
1.86823
 20
46.4034
 11
2.32042
 21
46.205
  0
LINE
  8
0
 10
2.32042
 20
46.205
 11
2.68371
 21
45.8706
  0
LINE
  8
0
 10
2.68371
 20
45.8706
 11
2.91873
 21
45.4363
  0
LINE
  8
0
 10
2.91873
 20
45.4363
 11
3
 21
44.9493
  0
LINE
  8
0
 10
3
 20
44.9493
 11
2.91873
 21
44.4622
  0
LINE
  8
0
 10
2.91873
 20
44.4622
 11
2.68371
 21
44.028
  0
LINE
  8
0
 10
2.68371
 20
44.028
 11
2.32042
 21
43.6935
  0
LINE
  8
0
 10
2.32042
 20
43.6935
 11
1.86823
 21
43.4952
  0
LINE
  8
0
 10
1.86823
 20
43.4952
 11
1.37613
 21
43.4544
  0
LINE
  8
0
 10
1.37613
 20
43.4544
 11
0.897457
 21
43.5756
  0
LINE
  8
0
 10
0.897457
 20
43.5756
 11
0.484078
 21
43.8457
  0
LINE
  8
0
 10
0.484078
 20
43.8457
 11
0.18079
 21
44.2354
  0
LINE
  8
0
 10
0.18079
 20
44.2354
 11
0.0204582
 21
44.7024
  0
LINE
  8
0
 10
20
 20
1.04904e-005
 11
68
 21
1.04904e-005
  0
LINE
  8
0
 10
68
 20
1.04904e-005
 11
68
 21
8.85142
  0
LINE
  8
0
 10
68
 20
8.85142
 11
67.8847
 21
8.85142
  0
LINE
  8
0
 10
67.8847
 20
8.85142
 11
66.7422
 21
11
  0
LINE
  8
0
 10
66.7422
 20
11
 11
66.2578
 21
11
  0
LINE
  8
0
 10
66.2578
 20
11
 11
65.1153
 21
8.85142
  0
LINE
  8
0
 10
65.1153
 20
8.85142
 11
64.8847
 21
8.85142
  0
LINE
  8
0
 10
64.8847
 20
8.85142
 11
63.7422
 21
11
  0
LINE
  8
0
 10
63.7422
 20
11
 11
63.2578
 21
11
  0
LINE
  8
0
 10
63.2578
 20
11
 11
62.1153
 21
8.85142
  0
LINE
  8
0
 10
62.1153
 20
8.85142
 11
61.8847
 21
8.85142
  0
LINE
  8
0
 10
61.8847
 20
8.85142
 11
60.7422
 21
11
  0
LINE
  8
0
 10
60.7422
 20
11
 11
60.2578
 21
11
  0
LINE
  8
0
 10
60.2578
 20
11
 11
59.1153
 21
8.85142
  0
LINE
  8
0
 10
59.1153
 20
8.85142
 11
58.8847
 21
8.85142
  0
LINE
  8
0
 10
58.8847
 20
8.85142
 11
57.7422
 21
11
  0
LINE
  8
0
 10
57.7422
 20
11
 11
57.2578
 21
11
  0
LINE
  8
0
 10
57.2578
 20
11
 11
56.1153
 21
8.85142
  0
LINE
  8
0
 10
56.1153
 20
8.85142
 11
55.8847
 21
8.85142
  0
LINE
  8
0
 10
55.8847
 20
8.85142
 11
54.7422
 21
11
  0
LINE
  8
0
 10
54.7422
 20
11
 11
54.2578
 21
11
  0
LINE
  8
0
 10
54.2578
 20
11
 11
53.1153
 21
8.85142
  0
LINE
  8
0
 10
53.1153
 20
8.85142
 11
52.8847
 21
8.85142
  0
LINE
  8
0
 10
52.8847
 20
8.85142
 11
51.7422
 21
11
  0
LINE
  8
0
 10
51.7422
 20
11
 11
51.2578
 21
11
  0
LINE
  8
0
 10
51.2578
 20
11
 11
50.1153
 21
8.85142
  0
LINE
  8
0
 10
50.1153
 20
8.85142
 11
49.8847
 21
8.85142
  0
LINE
  8
0
 10
49.8847
 20
8.85142
 11
48.7422
 21
11
  0
LINE
  8
0
 10
48.7422
 20
11
 11
48.2578
 21
11
  0
LINE
  8
0
 10
48.2578
 20
11
 11
47.1153
 21
8.85142
  0
LINE
  8
0
 10
47.1153
 20
8.85142
 11
46.8847
 21
8.85142
  0
LINE
  8
0
 10
46.8847
 20
8.85142
 11
45.7422
 21
11
  0
LINE
  8
0
 10
45.7422
 20
11
 11
45.2578
 21
11
  0
LINE
  8
0
 10
45.2578
 20
11
 11
44.1153
 21
8.85142
  0
LINE
  8
0
 10
44.1153
 20
8.85142
 11
43.8847
 21
8.85142
  0
LINE
  8
0
 10
43.8847
 20
8.85142
 11
42.7422
 21
11
  0
LINE
  8
0
 10
42.7422
 20
11
 11
42.2578
 21
11
  0
LINE
  8
0
 10
42.2578
 20
11
 11
41.1153
 21
8.85142
  0
LINE
  8
0
 10
41.1153
 20
8.85142
 11
40.8847
 21
8.85142
  0
LINE
  8
0
 10
40.8847
 20
8.85142
 11
39.7422
 21
11
  0
LINE
  8
0
 10
39.7422
 20
11
 11
39.2578
 21
11
  0
LINE
  8
0
 10
39.2578
 20
11
 11
38.1153
 21
8.85142
  0
LINE
  8
0
 10
38.1153
 20
8.85142
 11
37.8847
 21
8.85142
  0
LINE
  8
0
 10
37.8847
 20
8.85142
 11
36.7422
 21
11
  0
LINE
  8
0
 10
36.7422
 20
11
 11
36.2578
 21
11
  0
LINE
  8
0
 10
36.2578
 20
11
 11
35.1153
 21
8.85142
  0
LINE
  8
0
 10
35.1153
 20
8.85142
 11
34.8847
 21
8.85142
  0
LINE
  8
0
 10
34.8847
 20
8.85142
 11
33.7422
 21
11
  0
LINE
  8
0
 10
33.7422
 20
11
 11
33.2578
 21
11
  0
LINE
  8
0
 10
33.2578
 20
11
 11
32.1153
 21
8.85142
  0
LINE
  8
0
 10
32.1153
 20
8.85142
 11
31.8847
 21
8.85142
  0
LINE
  8
0
 10
31.8847
 20
8.85142
 11
30.7422
 21
11
  0
LINE
  8
0
 10
30.7422
 20
11
 11
30.2578
 21
11
  0
LINE
  8
0
 10
30.2578
 20
11
 11
29.1153
 21
8.85142
  0
LINE
  8
0
 10
29.1153
 20
8.85142
 11
28.8847
 21
8.85142
  0
LINE
  8
0
 10
28.8847
 20
8.85142
 11
27.7422
 21
11
  0
LINE
  8
0
 10
27.7422
 20
11
 11
27.2578
 21
11
  0
LINE
  8
0
 10
27.2578
 20
11
 11
26.1153
 21
8.85142
  0
LINE
  8
0
 10
26.1153
 20
8.85142
 11
25.8847
 21
8.85142
  0
LINE
  8
0
 10
25.8847
 20
8.85142
 11
24.7422
 21
11
  0
LINE
  8
0
 10
24.7422
 20
11
 11
24.2578
 21
11
  0
LINE
  8
0
 10
24.2578
 20
11
 11
23.1153
 21
8.85142
  0
LINE
  8
0
 10
23.1153
 20
8.85142
 11
22.8847
 21
8.85142
  0
LINE
  8
0
 10
22.8847
 20
8.85142
 11
21.7422
 21
11
  0
LINE
  8
0
 10
21.7422
 20
11
 11
21.2578
 21
11
  0
LINE
  8
0
 10
21.2578
 20
11
 11
20.1153
 21
8.85142
  0
LINE
  8
0
 10
20.1153
 20
8.85142
 11
20
 21
8.85142
  0
LINE
  8
0
 10
20
 20
8.85142
 11
20
 21
1.04904e-005
  0
LINE
  8
0
 10
22
 20
4
 11
22.0979
 21
4.61803
  0
LINE
  8
0
 10
22.0979
 20
4.61803
 11
22.382
 21
5.17557
  0
LINE
  8
0
 10
22.382
 20
5.17557
 11
22.8244
 21
5.61803
  0
LINE
  8
0
 10
22.8244
 20
5.61803
 11
23.382
 21
5.90211
  0
LINE
  8
0
 10
23.382
 20
5.90211
 11
24
 21
6
  0
LINE
  8
0
 10
24
 20
6
 11
24.618
 21
5.90211
  0
LINE
  8
0
 10
24.618
 20
5.90211
 11
25.1756
 21
5.61803
  0
LINE
  8
0
 10
25.1756
 20
5.61803
 11
25.618
 21
5.17557
  0
LINE
  8
0
 10
25.618
 20
5.17557
 11
25.9021
 21
4.61803
  0
LINE
  8
0
 10
25.9021
 20
4.61803
 11
26
 21
4
  0
LINE
  8
0
 10
26
 20
4
 11
25.9021
 21
3.38197
  0
LINE
  8
0
 10
25.9021
 20
3.38197
 11
25.618
 21
2.82443
  0
LINE
  8
0
 10
25.618
 20
2.82443
 11
25.1756
 21
2.38197
  0
LINE
  8
0
 10
25.1756
 20
2.38197
 11
24.618
 21
2.09789
  0
LINE
  8
0
 10
24.618
 20
2.09789
 11
24
 21
2
  0
LINE
  8
0
 10
24
 20
2
 11
23.382
 21
2.09789
  0
LINE
  8
0
 10
23.382
 20
2.09789
 11
22.8244
 21
2.38197
  0
LINE
  8
0
 10
22.8244
 20
2.38197
 11
22.382
 21
2.82443
  0
LINE
  8
0
 10
22.382
 20
2.82443
 11
22.0979
 21
3.38197
  0
LINE
  8
0
 10
22.0979
 20
3.38197
 11
22
 21
4
  0
LINE
  8
0
 10
38
 20
4
 11
38.0979
 21
4.61803
  0
LINE
  8
0
 10
38.0979
 20
4.61803
 11
38.382
 21
5.17557
  0
LINE
  8
0
 10
38.382
 20
5.17557
 11
38.8244
 21
5.61803
  0
LINE
  8
0
 10
38.8244
 20
5.61803
 11
39.382
 21
5.90211
  0
LINE
  8
0
 10
39.382
 20
5.90211
 11
40
 21
6
  0
LINE
  8
0
 10
40
 20
6
 11
40.618
 21
5.90211
  0
LINE
  8
0
 10
40.618
 20
5.90211
 11
41.1756
 21
5.61803
  0
LINE
  8
0
 10
41.1756
 20
5.61803
 11
41.618
 21
5.17557
  0
LINE
  8
0
 10
41.618
 20
5.17557
 11
41.9021
 21
4.61803
  0
LINE
  8
0
 10
41.9021
 20
4.61803
 11
42
 21
4
  0
LINE
  8
0
 10
42
 20
4
 11
41.9021
 21
3.38197
  0
LINE
  8
0
 10
41.9021
 20
3.38197
 11
41.618
 21
2.82443
  0
LINE
  8
0
 10
41.618
 20
2.82443
 11
41.1756
 21
2.38197
  0
LINE
  8
0
 10
41.1756
 20
2.38197
 11
40.618
 21
2.09789
  0
LINE
  8
0
 10
40.618
 20
2.09789
 11
40
 21
2
  0
LINE
  8
0
 10
40
 20
2
 11
39.382
 21
2.09789
  0
LINE
  8
0
 10
39.382
 20
2.09789
 11
38.8244
 21
2.38197
  0
LINE
  8
0
 10
38.8244
 20
2.38197
 11
38.382
 21
2.82443
  0
LINE
  8
0
 10
38.382
 20
2.82443
 11
38.0979
 21
3.38197
  0
LINE
  8
0
 10
38.0979
 20
3.38197
 11
38
 21
4
  0
LINE
  8
0
 10
46
 20
4
 11
46.0979
 21
4.61803
  0
LINE
  8
0
 10
46.0979
 20
4.61803
 11
46.382
 21
5.17557
  0
LINE
  8
0
 10
46.382
 20
5.17557
 11
46.8244
 21
5.61803
  0
LINE
  8
0
 10
46.8244
 20
5.61803
 11
47.382
 21
5.90211
  0
LINE
  8
0
 10
47.382
 20
5.90211
 11
48
 21
6
  0
LINE
  8
0
 10
48
 20
6
 11
48.618
 21
5.90211
  0
LINE
  8
0
 10
48.618
 20
5.90211
 11
49.1756
 21
5.61803
  0
LINE
  8
0
 10
49.1756
 20
5.61803
 11
49.618
 21
5.17557
  0
LINE
  8
0
 10
49.618
 20
5.17557
 11
49.9021
 21
4.61803
  0
LINE
  8
0
 10
49.9021
 20
4.61803
 11
50
 21
4
  0
LINE
  8
0
 10
50
 20
4
 11
49.9021
 21
3.38197
  0
LINE
  8
0
 10
49.9021
 20
3.38197
 11
49.618
 21
2.82443
  0
LINE
  8
0
 10
49.618
 20
2.82443
 11
49.1756
 21
2.38197
  0
LINE
  8
0
 10
49.1756
 20
2.38197
 11
48.618
 21
2.09789
  0
LINE
  8
0
 10
48.618
 20
2.09789
 11
48
 21
2
  0
LINE
  8
0
 10
48
 20
2
 11
47.382
 21
2.09789
  0
LINE
  8
0
 10
47.382
 20
2.09789
 11
46.8244
 21
2.38197
  0
LINE
  8
0
 10
46.8244
 20
2.38197
 11
46.382
 21
2.82443
  0
LINE
  8
0
 10
46.382
 20
2.82443
 11
46.0979
 21
3.38197
  0
LINE
  8
0
 10
46.0979
 20
3.38197
 11
46
 21
4
  0
LINE
  8
0
 10
62
 20
4
 11
62.0979
 21
4.61803
  0
LINE
  8
0
 10
62.0979
 20
4.61803
 11
62.382
 21
5.17557
  0
LINE
  8
0
 10
62.382
 20
5.17557
 11
62.8244
 21
5.61803
  0
LINE
  8
0
 10
62.8244
 20
5.61803
 11
63.382
 21
5.90211
  0
LINE
  8
0
 10
63.382
 20
5.90211
 11
64
 21
6
  0
LINE
  8
0
 10
64
 20
6
 11
64.618
 21
5.90211
  0
LINE
  8
0
 10
64.618
 20
5.90211
 11
65.1756
 21
5.61803
  0
LINE
  8
0
 10
65.1756
 20
5.61803
 11
65.618
 21
5.17557
  0
LINE
  8
0
 10
65.618
 20
5.17557
 11
65.9021
 21
4.61803
  0
LINE
  8
0
 10
65.9021
 20
4.61803
 11
66
 21
4
  0
LINE
  8
0
 10
66
 20
4
 11
65.9021
 21
3.38197
  0
LINE
  8
0
 10
65.9021
 20
3.38197
 11
65.618
 21
2.82443
  0
LINE
  8
0
 10
65.618
 20
2.82443
 11
65.1756
 21
2.38197
  0
LINE
  8
0
 10
65.1756
 20
2.38197
 11
64.618
 21
2.09789
  0
LINE
  8
0
 10
64.618
 20
2.09789
 11
64
 21
2
  0
LINE
  8
0
 10
64
 20
2
 11
63.382
 21
2.09789
  0
LINE
  8
0
 10
63.382
 20
2.09789
 11
62.8244
 21
2.38197
  0
LINE
  8
0
 10
62.8244
 20
2.38197
 11
62.382
 21
2.82443
  0
LINE
  8
0
 10
62.382
 20
2.82443
 11
62.0979
 21
3.38197
  0
LINE
  8
0
 10
62.0979
 20
3.38197
 11
62
 21
4
  0
LINE
  8
0
 10
20
 20
11.4
 11
68
 21
11.4
  0
LINE
  8
0
 10
68
 20
11.4
 11
68
 21
20.2514
  0
LINE
  8
0
 10
68
 20
20.2514
 11
67.8847
 21
20.2514
  0
LINE
  8
0
 10
67.8847
 20
20.2514
 11
66.7422
 21
22.4
  0
LINE
  8
0
 10
66.7422
 20
22.4
 11
66.2578
 21
22.4
  0
LINE
  8
0
 10
66.2578
 20
22.4
 11
65.1153
 21
20.2514
  0
LINE
  8
0
 10
65.1153
 20
20.2514
 11
64.8847
 21
20.2514
  0
LINE
  8
0
 10
64.8847
 20
20.2514
 11
63.7422
 21
22.4
  0
LINE
  8
0
 10
63.7422
 20
22.4
 11
63.2578
 21
22.4
  0
LINE
  8
0
 10
63.2578
 20
22.4
 11
62.1153
 21
20.2514
  0
LINE
  8
0
 10
62.1153
 20
20.2514
 11
61.8847
 21
20.2514
  0
LINE
  8
0
 10
61.8847
 20
20.2514
 11
60.7422
 21
22.4
  0
LINE
  8
0
 10
60.7422
 20
22.4
 11
60.2578
 21
22.4
  0
LINE
  8
0
 10
60.2578
 20
22.4
 11
59.1153
 21
20.2514
  0
LINE
  8
0
 10
59.1153
 20
20.2514
 11
58.8847
 21
20.2514
  0
LINE
  8
0
 10
58.8847
 20
20.2514
 11
57.7422
 21
22.4
  0
LINE
  8
0
 10
57.7422
 20
22.4
 11
57.2578
 21
22.4
  0
LINE
  8
0
 10
57.2578
 20
22.4
 11
56.1153
 21
20.2514
  0
LINE
  8
0
 10
56.1153
 20
20.2514
 11
55.8847
 21
20.2514
  0
LINE
  8
0
 10
55.8847
 20
20.2514
 11
54.7422
 21
22.4
  0
LINE
  8
0
 10
54.7422
 20
22.4
 11
54.2578
 21
22.4
  0
LINE
  8
0
 10
54.2578
 20
22.4
 11
53.1153
 21
20.2514
  0
LINE
  8
0
 10
53.1153
 20
20.2514
 11
52.8847
 21
20.2514
  0
LINE
  8
0
 10
52.8847
 20
20.2514
 11
51.7422
 21
22.4
  0
LINE
  8
0
 10
51.7422
 20
22.4
 11
51.2578
 21
22.4
  0
LINE
  8
0
 10
51.2578
 20
22.4
 11
50.1153
 21
20.2514
  0
LINE
  8
0
 10
50.1153
 20
20.2514
 11
49.8847
 21
20.2514
  0
LINE
  8
0
 10
49.8847
 20
20.2514
 11
48.7422
 21
22.4
  0
LINE
  8
0
 10
48.7422
 20
22.4
 11
48.2578
 21
22.4
  0
LINE
  8
0
 10
48.2578
 20
22.4
 11
47.1153
 21
20.2514
  0
LINE
  8
0
 10
47.1153
 20
20.2514
 11
46.8847
 21
20.2514
  0
LINE
  8
0
 10
46.8847
 20
20.2514
 11
45.7422
 21
22.4
  0
LINE
  8
0
 10
45.7422
 20
22.4
 11
45.2578
 21
22.4
  0
LINE
  8
0
 10
45.2578
 20
22.4
 11
44.1153
 21
20.2514
  0
LINE
  8
0
 10
44.1153
 20
20.2514
 11
43.8847
 21
20.2514
  0
LINE
  8
0
 10
43.8847
 20
20.2514
 11
42.7422
 21
22.4
  0
LINE
  8
0
 10
42.7422
 20
22.4
 11
42.2578
 21
22.4
  0
LINE
  8
0
 10
42.2578
 20
22.4
 11
41.1153
 21
20.2514
  0
LINE
  8
0
 10
41.1153
 20
20.2514
 11
40.8847
 21
20.2514
  0
LINE
  8
0
 10
40.8847
 20
20.2514
 11
39.7422
 21
22.4
  0
LINE
  8
0
 10
39.7422
 20
22.4
 11
39.2578
 21
22.4
  0
LINE
  8
0
 10
39.2578
 20
22.4
 11
38.1153
 21
20.2514
  0
LINE
  8
0
 10
38.1153
 20
20.2514
 11
37.8847
 21
20.2514
  0
LINE
  8
0
 10
37.8847
 20
20.2514
 11
36.7422
 21
22.4
  0
LINE
  8
0
 10
36.7422
 20
22.4
 11
36.2578
 21
22.4
  0
LINE
  8
0
 10
36.2578
 20
22.4
 11
35.1153
 21
20.2514
  0
LINE
  8
0
 10
35.1153
 20
20.2514
 11
34.8847
 21
20.2514
  0
LINE
  8
0
 10
34.8847
 20
20.2514
 11
33.7422
 21
22.4
  0
LINE
  8
0
 10
33.7422
 20
22.4
 11
33.2578
 21
22.4
  0
LINE
  8
0
 10
33.2578
 20
22.4
 11
32.1153
 21
20.2514
  0
LINE
  8
0
 10
32.1153
 20
20.2514
 11
31.8847
 21
20.2514
  0
LINE
  8
0
 10
31.8847
 20
20.2514
 11
30.7422
 21
22.4
  0
LINE
  8
0
 10
30.7422
 20
22.4
 11
30.2578
 21
22.4
  0
LINE
  8
0
 10
30.2578
 20
22.4
 11
29.1153
 21
20.2514
  0
LINE
  8
0
 10
29.1153
 20
20.2514
 11
28.8847
 21
20.2514
  0
LINE
  8
0
 10
28.8847
 20
20.2514
 11
27.7422
 21
22.4
  0
LINE
  8
0
 10
27.7422
 20
22.4
 11
27.2578
 21
22.4
  0
LINE
  8
0
 10
27.2578
 20
22.4
 11
26.1153
 21
20.2514
  0
LINE
  8
0
 10
26.1153
 20
20.2514
 11
25.8847
 21
20.2514
  0
LINE
  8
0
 10
25.8847
 20
20.2514
 11
24.7422
 21
22.4
  0
LINE
  8
0
 10
24.7422
 20
22.4
 11
24.2578
 21
22.4
  0
LINE
  8
0
 10
24.2578
 20
22.4
 11
23.1153
 21
20.2514
  0
LINE
  8
0
 10
23.1153
 20
20.2514
 11
22.8847
 21
20.2514
  0
LINE
  8
0
 10
22.8847
 20
20.2514
 11
21.7422
 21
22.4
  0
LINE
  8
0
 10
21.7422
 20
22.4
 11
21.2578
 21
22.4
  0
LINE
  8
0
 10
21.2578
 20
22.4
 11
20.1153
 21
20.2514
  0
LINE
  8
0
 10
20.1153
 20
20.2514
 11
20
 21
20.2514
  0
LINE
  8
0
 10
20
 20
20.2514
 11
20
 21
11.4
  0
LINE
  8
0
 10
22
 20
15.4
 11
22.0979
 21
16.018
  0
LINE
  8
0
 10
22.0979
 20
16.018
 11
22.382
 21
16.5756
  0
LINE
  8
0
 10
22.382
 20
16.5756
 11
22.8244
 21
17.018
  0
LINE
  8
0
 10
22.8244
 20
17.018
 11
23.382
 21
17.3021
  0
LINE
  8
0
 10
23.382
 20
17.3021
 11
24
 21
17.4
  0
LINE
  8
0
 10
24
 20
17.4
 11
24.618
 21
17.3021
  0
LINE
  8
0
 10
24.618
 20
17.3021
 11
25.1756
 21
17.018
  0
LINE
  8
0
 10
25.1756
 20
17.018
 11
25.618
 21
16.5756
  0
LINE
  8
0
 10
25.618
 20
16.5756
 11
25.9021
 21
16.018
  0
LINE
  8
0
 10
25.9021
 20
16.018
 11
26
 21
15.4
  0
LINE
  8
0
 10
26
 20
15.4
 11
25.9021
 21
14.782
  0
LINE
  8
0
 10
25.9021
 20
14.782
 11
25.618
 21
14.2244
  0
LINE
  8
0
 10
25.618
 20
14.2244
 11
25.1756
 21
13.782
  0
LINE
  8
0
 10
25.1756
 20
13.782
 11
24.618
 21
13.4979
  0
LINE
  8
0
 10
24.618
 20
13.4979
 11
24
 21
13.4
  0
LINE
  8
0
 10
24
 20
13.4
 11
23.382
 21
13.4979
  0
LINE
  8
0
 10
23.382
 20
13.4979
 11
22.8244
 21
13.782
  0
LINE
  8
0
 10
22.8244
 20
13.782
 11
22.382
 21
14.2244
  0
LINE
  8
0
 10
22.382
 20
14.2244
 11
22.0979
 21
14.782
  0
LINE
  8
0
 10
22.0979
 20
14.782
 11
22
 21
15.4
  0
LINE
  8
0
 10
38
 20
15.4
 11
38.0979
 21
16.018
  0
LINE
  8
0
 10
38.0979
 20
16.018
 11
38.382
 21
16.5756
  0
LINE
  8
0
 10
38.382
 20
16.5756
 11
38.8244
 21
17.018
  0
LINE
  8
0
 10
38.8244
 20
17.018
 11
39.382
 21
17.3021
  0
LINE
  8
0
 10
39.382
 20
17.3021
 11
40
 21
17.4
  0
LINE
  8
0
 10
40
 20
17.4
 11
40.618
 21
17.3021
  0
LINE
  8
0
 10
40.618
 20
17.3021
 11
41.1756
 21
17.018
  0
LINE
  8
0
 10
41.1756
 20
17.018
 11
41.618
 21
16.5756
  0
LINE
  8
0
 10
41.618
 20
16.5756
 11
41.9021
 21
16.018
  0
LINE
  8
0
 10
41.9021
 20
16.018
 11
42
 21
15.4
  0
LINE
  8
0
 10
42
 20
15.4
 11
41.9021
 21
14.782
  0
LINE
  8
0
 10
41.9021
 20
14.782
 11
41.618
 21
14.2244
  0
LINE
  8
0
 10
41.618
 20
14.2244
 11
41.1756
 21
13.782
  0
LINE
  8
0
 10
41.1756
 20
13.782
 11
40.618
 21
13.4979
  0
LINE
  8
0
 10
40.618
 20
13.4979
 11
40
 21
13.4
  0
LINE
  8
0
 10
40
 20
13.4
 11
39.382
 21
13.4979
  0
LINE
  8
0
 10
39.382
 20
13.4979
 11
38.8244
 21
13.782
  0
LINE
  8
0
 10
38.8244
 20
13.782
 11
38.382
 21
14.2244
  0
LINE
  8
0
 10
38.382
 20
14.2244
 11
38.0979
 21
14.782
  0
LINE
  8
0
 10
38.0979
 20
14.782
 11
38
 21
15.4
  0
LINE
  8
0
 10
46
 20
15.4
 11
46.0979
 21
16.018
  0
LINE
  8
0
 10
46.0979
 20
16.018
 11
46.382
 21
16.5756
  0
LINE
  8
0
 10
46.382
 20
16.5756
 11
46.8244
 21
17.018
  0
LINE
  8
0
 10
46.8244
 20
17.018
 11
47.382
 21
17.3021
  0
LINE
  8
0
 10
47.382
 20
17.3021
 11
48
 21
17.4
  0
LINE
  8
0
 10
48
 20
17.4
 11
48.618
 21
17.3021
  0
LINE
  8
0
 10
48.618
 20
17.3021
 11
49.1756
 21
17.018
  0
LINE
  8
0
 10
49.1756
 20
17.018
 11
49.618
 21
16.5756
  0
LINE
  8
0
 10
49.618
 20
16.5756
 11
49.9021
 21
16.018
  0
LINE
  8
0
 10
49.9021
 20
16.018
 11
50
 21
15.4
  0
LINE
  8
0
 10
50
 20
15.4
 11
49.9021
 21
14.782
  0
LINE
  8
0
 10
49.9021
 20
14.782
 11
49.618
 21
14.2244
  0
LINE
  8
0
 10
49.618
 20
14.2244
 11
49.1756
 21
13.782
  0
LINE
  8
0
 10
49.1756
 20
13.782
 11
48.618
 21
13.4979
  0
LINE
  8
0
 10
48.618
 20
13.4979
 11
48
 21
13.4
  0
LINE
  8
0
 10
48
 20
13.4
 11
47.382
 21
13.4979
  0
LINE
  8
0
 10
47.382
 20
13.4979
 11
46.8244
 21
13.782
  0
LINE
  8
0
 10
46.8244
 20
13.782
 11
46.382
 21
14.2244
  0
LINE
  8
0
 10
46.382
 20
14.2244
 11
46.0979
 21
14.782
  0
LINE
  8
0
 10
46.0979
 20
14.782
 11
46
 21
15.4
  0
LINE
  8
0
 10
62
 20
15.4
 11
62.0979
 21
16.018
  0
LINE
  8
0
 10
62.0979
 20
16.018
 11
62.382
 21
16.5756
  0
LINE
  8
0
 10
62.382
 20
16.5756
 11
62.8244
 21
17.018
  0
LINE
  8
0
 10
62.8244
 20
17.018
 11
63.382
 21
17.3021
  0
LINE
  8
0
 10
63.382
 20
17.3021
 11
64
 21
17.4
  0
LINE
  8
0
 10
64
 20
17.4
 11
64.618
 21
17.3021
  0
LINE
  8
0
 10
64.618
 20
17.3021
 11
65.1756
 21
17.018
  0
LINE
  8
0
 10
65.1756
 20
17.018
 11
65.618
 21
16.5756
  0
LINE
  8
0
 10
65.618
 20
16.5756
 11
65.9021
 21
16.018
  0
LINE
  8
0
 10
65.9021
 20
16.018
 11
66
 21
15.4
  0
LINE
  8
0
 10
66
 20
15.4
 11
65.9021
 21
14.782
  0
LINE
  8
0
 10
65.9021
 20
14.782
 11
65.618
 21
14.2244
  0
LINE
  8
0
 10
65.618
 20
14.2244
 11
65.1756
 21
13.782
  0
LINE
  8
0
 10
65.1756
 20
13.782
 11
64.618
 21
13.4979
  0
LINE
  8
0
 10
64.618
 20
13.4979
 11
64
 21
13.4
  0
LINE
  8
0
 10
64
 20
13.4
 11
63.382
 21
13.4979
  0
LINE
  8
0
 10
63.382
 20
13.4979
 11
62.8244
 21
13.782
  0
LINE
  8
0
 10
62.8244
 20
13.782
 11
62.382
 21
14.2244
  0
LINE
  8
0
 10
62.382
 20
14.2244
 11
62.0979
 21
14.782
  0
LINE
  8
0
 10
62.0979
 20
14.782
 11
62
 21
15.4
  0
LINE
  8
0
 10
20
 20
22.8
 11
68
 21
22.8
  0
LINE
  8
0
 10
68
 20
22.8
 11
68
 21
31.6514
  0
LINE
  8
0
 10
68
 20
31.6514
 11
67.8847
 21
31.6514
  0
LINE
  8
0
 10
67.8847
 20
31.6514
 11
66.7422
 21
33.8
  0
LINE
  8
0
 10
66.7422
 20
33.8
 11
66.2578
 21
33.8
  0
LINE
  8
0
 10
66.2578
 20
33.8
 11
65.1153
 21
31.6514
  0
LINE
  8
0
 10
65.1153
 20
31.6514
 11
64.8847
 21
31.6514
  0
LINE
  8
0
 10
64.8847
 20
31.6514
 11
63.7422
 21
33.8
  0
LINE
  8
0
 10
63.7422
 20
33.8
 11
63.2578
 21
33.8
  0
LINE
  8
0
 10
63.2578
 20
33.8
 11
62.1153
 21
31.6514
  0
LINE
  8
0
 10
62.1153
 20
31.6514
 11
61.8847
 21
31.6514
  0
LINE
  8
0
 10
61.8847
 20
31.6514
 11
60.7422
 21
33.8
  0
LINE
  8
0
 10
60.7422
 20
33.8
 11
60.2578
 21
33.8
  0
LINE
  8
0
 10
60.2578
 20
33.8
 11
59.1153
 21
31.6514
  0
LINE
  8
0
 10
59.1153
 20
31.6514
 11
58.8847
 21
31.6514
  0
LINE
  8
0
 10
58.8847
 20
31.6514
 11
57.7422
 21
33.8
  0
LINE
  8
0
 10
57.7422
 20
33.8
 11
57.2578
 21
33.8
  0
LINE
  8
0
 10
57.2578
 20
33.8
 11
56.1153
 21
31.6514
  0
LINE
  8
0
 10
56.1153
 20
31.6514
 11
55.8847
 21
31.6514
  0
LINE
  8
0
 10
55.8847
 20
31.6514
 11
54.7422
 21
33.8
  0
LINE
  8
0
 10
54.7422
 20
33.8
 11
54.2578
 21
33.8
  0
LINE
  8
0
 10
54.2578
 20
33.8
 11
53.1153
 21
31.6514
  0
LINE
  8
0
 10
53.1153
 20
31.6514
 11
52.8847
 21
31.6514
  0
LINE
  8
0
 10
52.8847
 20
31.6514
 11
51.7422
 21
33.8
  0
LINE
  8
0
 10
51.7422
 20
33.8
 11
51.2578
 21
33.8
  0
LINE
  8
0
 10
51.2578
 20
33.8
 11
50.1153
 21
31.6514
  0
LINE
  8
0
 10
50.1153
 20
31.6514
 11
49.8847
 21
31.6514
  0
LINE
  8
0
 10
49.8847
 20
31.6514
 11
48.7422
 21
33.8
  0
LINE
  8
0
 10
48.7422
 20
33.8
 11
48.2578
 21
33.8
  0
LINE
  8
0
 10
48.2578
 20
33.8
 11
47.1153
 21
31.6514
  0
LINE
  8
0
 10
47.1153
 20
31.6514
 11
46.8847
 21
31.6514
  0
LINE
  8
0
 10
46.8847
 20
31.6514
 11
45.7422
 21
33.8
  0
LINE
  8
0
 10
45.7422
 20
33.8
 11
45.2578
 21
33.8
  0
LINE
  8
0
 10
45.2578
 20
33.8
 11
44.1153
 21
31.6514
  0
LINE
  8
0
 10
44.1153
 20
31.6514
 11
43.8847
 21
31.6514
  0
LINE
  8
0
 10
43.8847
 20
31.6514
 11
42.7422
 21
33.8
  0
LINE
  8
0
 10
42.7422
 20
33.8
 11
42.2578
 21
33.8
  0
LINE
  8
0
 10
42.2578
 20
33.8
 11
41.1153
 21
31.6514
  0
LINE
  8
0
 10
41.1153
 20
31.6514
 11
40.8847
 21
31.6514
  0
LINE
  8
0
 10
40.8847
 20
31.6514
 11
39.7422
 21
33.8
  0
LINE
  8
0
 10
39.7422
 20
33.8
 11
39.2578
 21
33.8
  0
LINE
  8
0
 10
39.2578
 20
33.8
 11
38.1153
 21
31.6514
  0
LINE
  8
0
 10
38.1153
 20
31.6514
 11
37.8847
 21
31.6514
  0
LINE
  8
0
 10
37.8847
 20
31.6514
 11
36.7422
 21
33.8
  0
LINE
  8
0
 10
36.7422
 20
33.8
 11
36.2578
 21
33.8
  0
LINE
  8
0
 10
36.2578
 20
33.8
 11
35.1153
 21
31.6514
  0
LINE
  8
0
 10
35.1153
 20
31.6514
 11
34.8847
 21
31.6514
  0
LINE
  8
0
 10
34.8847
 20
31.6514
 11
33.7422
 21
33.8
  0
LINE
  8
0
 10
33.7422
 20
33.8
 11
33.2578
 21
33.8
  0
LINE
  8
0
 10
33.2578
 20
33.8
 11
32.1153
 21
31.6514
  0
LINE
  8
0
 10
32.1153
 20
31.6514
 11
31.8847
 21
31.6514
  0
LINE
  8
0
 10
31.8847
 20
31.6514
 11
30.7422
 21
33.8
  0
LINE
  8
0
 10
30.7422
 20
33.8
 11
30.2578
 21
33.8
  0
LINE
  8
0
 10
30.2578
 20
33.8
 11
29.1153
 21
31.6514
  0
LINE
  8
0
 10
29.1153
 20
31.6514
 11
28.8847
 21
31.6514
  0
LINE
  8
0
 10
28.8847
 20
31.6514
 11
27.7422
 21
33.8
  0
LINE
  8
0
 10
27.7422
 20
33.8
 11
27.2578
 21
33.8
  0
LINE
  8
0
 10
27.2578
 20
33.8
 11
26.1153
 21
31.6514
  0
LINE
  8
0
 10
26.1153
 20
31.6514
 11
25.8847
 21
31.6514
  0
LINE
  8
0
 10
25.8847
 20
31.6514
 11
24.7422
 21
33.8
  0
LINE
  8
0
 10
24.7422
 20
33.8
 11
24.2578
 21
33.8
  0
LINE
  8
0
 10
24.2578
 20
33.8
 11
23.1153
 21
31.6514
  0
LINE
  8
0
 10
23.1153
 20
31.6514
 11
22.8847
 21
31.6514
  0
LINE
  8
0
 10
22.8847
 20
31.6514
 11
21.7422
 21
33.8
  0
LINE
  8
0
 10
21.7422
 20
33.8
 11
21.2578
 21
33.8
  0
LINE
  8
0
 10
21.2578
 20
33.8
 11
20.1153
 21
31.6514
  0
LINE
  8
0
 10
20.1153
 20
31.6514
 11
20
 21
31.6514
  0
LINE
  8
0
 10
20
 20
31.6514
 11
20
 21
22.8
  0
LINE
  8
0
 10
22
 20
26.8
 11
22.0979
 21
27.418
  0
LINE
  8
0
 10
22.0979
 20
27.418
 11
22.382
 21
27.9756
  0
LINE
  8
0
 10
22.382
 20
27.9756
 11
22.8244
 21
28.418
  0
LINE
  8
0
 10
22.8244
 20
28.418
 11
23.382
 21
28.7021
  0
LINE
  8
0
 10
23.382
 20
28.7021
 11
24
 21
28.8
  0
LINE
  8
0
 10
24
 20
28.8
 11
24.618
 21
28.7021
  0
LINE
  8
0
 10
24.618
 20
28.7021
 11
25.1756
 21
28.418
  0
LINE
  8
0
 10
25.1756
 20
28.418
 11
25.618
 21
27.9756
  0
LINE
  8
0
 10
25.618
 20
27.9756
 11
25.9021
 21
27.418
  0
LINE
  8
0
 10
25.9021
 20
27.418
 11
26
 21
26.8
  0
LINE
  8
0
 10
26
 20
26.8
 11
25.9021
 21
26.182
  0
LINE
  8
0
 10
25.9021
 20
26.182
 11
25.618
 21
25.6244
  0
LINE
  8
0
 10
25.618
 20
25.6244
 11
25.1756
 21
25.182
  0
LINE
  8
0
 10
25.1756
 20
25.182
 11
24.618
 21
24.8979
  0
LINE
  8
0
 10
24.618
 20
24.8979
 11
24
 21
24.8
  0
LINE
  8
0
 10
24
 20
24.8
 11
23.382
 21
24.8979
  0
LINE
  8
0
 10
23.382
 20
24.8979
 11
22.8244
 21
25.182
  0
LINE
  8
0
 10
22.8244
 20
25.182
 11
22.382
 21
25.6244
  0
LINE
  8
0
 10
22.382
 20
25.6244
 11
22.0979
 21
26.182
  0
LINE
  8
0
 10
22.0979
 20
26.182
 11
22
 21
26.8
  0
LINE
  8
0
 10
38
 20
26.8
 11
38.0979
 21
27.418
  0
LINE
  8
0
 10
38.0979
 20
27.418
 11
38.382
 21
27.9756
  0
LINE
  8
0
 10
38.382
 20
27.9756
 11
38.8244
 21
28.418
  0
LINE
  8
0
 10
38.8244
 20
28.418
 11
39.382
 21
28.7021
  0
LINE
  8
0
 10
39.382
 20
28.7021
 11
40
 21
28.8
  0
LINE
  8
0
 10
40
 20
28.8
 11
40.618
 21
28.7021
  0
LINE
  8
0
 10
40.618
 20
28.7021
 11
41.1756
 21
28.418
  0
LINE
  8
0
 10
41.1756
 20
28.418
 11
41.618
 21
27.9756
  0
LINE
  8
0
 10
41.618
 20
27.9756
 11
41.9021
 21
27.418
  0
LINE
  8
0
 10
41.9021
 20
27.418
 11
42
 21
26.8
  0
LINE
  8
0
 10
42
 20
26.8
 11
41.9021
 21
26.182
  0
LINE
  8
0
 10
41.9021
 20
26.182
 11
41.618
 21
25.6244
  0
LINE
  8
0
 10
41.618
 20
25.6244
 11
41.1756
 21
25.182
  0
LINE
  8
0
 10
41.1756
 20
25.182
 11
40.618
 21
24.8979
  0
LINE
  8
0
 10
40.618
 20
24.8979
 11
40
 21
24.8
  0
LINE
  8
0
 10
40
 20
24.8
 11
39.382
 21
24.8979
  0
LINE
  8
0
 10
39.382
 20
24.8979
 11
38.8244
 21
25.182
  0
LINE
  8
0
 10
38.8244
 20
25.182
 11
38.382
 21
25.6244
  0
LINE
  8
0
 10
38.382
 20
25.6244
 11
38.0979
 21
26.182
  0
LINE
  8
0
 10
38.0979
 20
26.182
 11
38
 21
26.8
  0
LINE
  8
0
 10
46
 20
26.8
 11
46.0979
 21
27.418
  0
LINE
  8
0
 10
46.0979
 20
27.418
 11
46.382
 21
27.9756
  0
LINE
  8
0
 10
46.382
 20
27.9756
 11
46.8244
 21
28.418
  0
LINE
  8
0
 10
46.8244
 20
28.418
 11
47.382
 21
28.7021
  0
LINE
  8
0
 10
47.382
 20
28.7021
 11
48
 21
28.8
  0
LINE
  8
0
 10
48
 20
28.8
 11
48.618
 21
28.7021
  0
LINE
  8
0
 10
48.618
 20
28.7021
 11
49.1756
 21
28.418
  0
LINE
  8
0
 10
49.1756
 20
28.418
 11
49.618
 21
27.9756
  0
LINE
  8
0
 10
49.618
 20
27.9756
 11
49.9021
 21
27.418
  0
LINE
  8
0
 10
49.9021
 20
27.418
 11
50
 21
26.8
  0
LINE
  8
0
 10
50
 20
26.8
 11
49.9021
 21
26.182
  0
LINE
  8
0
 10
49.9021
 20
26.182
 11
49.618
 21
25.6244
  0
LINE
  8
0
 10
49.618
 20
25.6244
 11
49.1756
 21
25.182
  0
LINE
  8
0
 10
49.1756
 20
25.182
 11
48.618
 21
24.8979
  0
LINE
  8
0
 10
48.618
 20
24.8979
 11
48
 21
24.8
  0
LINE
  8
0
 10
48
 20
24.8
 11
47.382
 21
24.8979
  0
LINE
  8
0
 10
47.382
 20
24.8979
 11
46.8244
 21
25.182
  0
LINE
  8
0
 10
46.8244
 20
25.182
 11
46.382
 21
25.6244
  0
LINE
  8
0
 10
46.382
 20
25.6244
 11
46.0979
 21
26.182
  0
LINE
  8
0
 10
46.0979
 20
26.182
 11
46
 21
26.8
  0
LINE
  8
0
 10
62
 20
26.8
 11
62.0979
 21
27.418
  0
LINE
  8
0
 10
62.0979
 20
27.418
 11
62.382
 21
27.9756
  0
LINE
  8
0
 10
62.382
 20
27.9756
 11
62.8244
 21
28.418
  0
LINE
  8
0
 10
62.8244
 20
28.418
 11
63.382
 21
28.7021
  0
LINE
  8
0
 10
63.382
 20
28.7021
 11
64
 21
28.8
  0
LINE
  8
0
 10
64
 20
28.8
 11
64.618
 21
28.7021
  0
LINE
  8
0
 10
64.618
 20
28.7021
 11
65.1756
 21
28.418
  0
LINE
  8
0
 10
65.1756
 20
28.418
 11
65.618
 21
27.9756
  0
LINE
  8
0
 10
65.618
 20
27.9756
 11
65.9021
 21
27.418
  0
LINE
  8
0
 10
65.9021
 20
27.418
 11
66
 21
26.8
  0
LINE
  8
0
 10
66
 20
26.8
 11
65.9021
 21
26.182
  0
LINE
  8
0
 10
65.9021
 20
26.182
 11
65.618
 21
25.6244
  0
LINE
  8
0
 10
65.618
 20
25.6244
 11
65.1756
 21
25.182
  0
LINE
  8
0
 10
65.1756
 20
25.182
 11
64.618
 21
24.8979
  0
LINE
  8
0
 10
64.618
 20
24.8979
 11
64
 21
24.8
  0
LINE
  8
0
 10
64
 20
24.8
 11
63.382
 21
24.8979
  0
LINE
  8
0
 10
63.382
 20
24.8979
 11
62.8244
 21
25.182
  0
LINE
  8
0
 10
62.8244
 20
25.182
 11
62.382
 21
25.6244
  0
LINE
  8
0
 10
62.382
 20
25.6244
 11
62.0979
 21
26.182
  0
LINE
  8
0
 10
62.0979
 20
26.182
 11
62
 21
26.8
  0
LINE
  8
0
 10
20
 20
34.2
 11
68
 21
34.2
  0
LINE
  8
0
 10
68
 20
34.2
 11
68
 21
43.0514
  0
LINE
  8
0
 10
68
 20
43.0514
 11
67.8847
 21
43.0514
  0
LINE
  8
0
 10
67.8847
 20
43.0514
 11
66.7422
 21
45.2
  0
LINE
  8
0
 10
66.7422
 20
45.2
 11
66.2578
 21
45.2
  0
LINE
  8
0
 10
66.2578
 20
45.2
 11
65.1153
 21
43.0514
  0
LINE
  8
0
 10
65.1153
 20
43.0514
 11
64.8847
 21
43.0514
  0
LINE
  8
0
 10
64.8847
 20
43.0514
 11
63.7422
 21
45.2
  0
LINE
  8
0
 10
63.7422
 20
45.2
 11
63.2578
 21
45.2
  0
LINE
  8
0
 10
63.2578
 20
45.2
 11
62.1153
 21
43.0514
  0
LINE
  8
0
 10
62.1153
 20
43.0514
 11
61.8847
 21
43.0514
  0
LINE
  8
0
 10
61.8847
 20
43.0514
 11
60.7422
 21
45.2
  0
LINE
  8
0
 10
60.7422
 20
45.2
 11
60.2578
 21
45.2
  0
LINE
  8
0
 10
60.2578
 20
45.2
 11
59.1153
 21
43.0514
  0
LINE
  8
0
 10
59.1153
 20
43.0514
 11
58.8847
 21
43.0514
  0
LINE
  8
0
 10
58.8847
 20
43.0514
 11
57.7422
 21
45.2
  0
LINE
  8
0
 10
57.7422
 20
45.2
 11
57.2578
 21
45.2
  0
LINE
  8
0
 10
57.2578
 20
45.2
 11
56.1153
 21
43.0514
  0
LINE
  8
0
 10
56.1153
 20
43.0514
 11
55.8847
 21
43.0514
  0
LINE
  8
0
 10
55.8847
 20
43.0514
 11
54.7422
 21
45.2
  0
LINE
  8
0
 10
54.7422
 20
45.2
 11
54.2578
 21
45.2
  0
LINE
  8
0
 10
54.2578
 20
45.2
 11
53.1153
 21
43.0514
  0
LINE
  8
0
 10
53.1153
 20
43.0514
 11
52.8847
 21
43.0514
  0
LINE
  8
0
 10
52.8847
 20
43.0514
 11
51.7422
 21
45.2
  0
LINE
  8
0
 10
51.7422
 20
45.2
 11
51.2578
 21
45.2
  0
LINE
  8
0
 10
51.2578
 20
45.2
 11
50.1153
 21
43.0514
  0
LINE
  8
0
 10
50.1153
 20
43.0514
 11
49.8847
 21
43.0514
  0
LINE
  8
0
 10
49.8847
 20
43.0514
 11
48.7422
 21
45.2
  0
LINE
  8
0
 10
48.7422
 20
45.2
 11
48.2578
 21
45.2
  0
LINE
  8
0
 10
48.2578
 20
45.2
 11
47.1153
 21
43.0514
  0
LINE
  8
0
 10
47.1153
 20
43.0514
 11
46.8847
 21
43.0514
  0
LINE
  8
0
 10
46.8847
 20
43.0514
 11
45.7422
 21
45.2
  0
LINE
  8
0
 10
45.7422
 20
45.2
 11
45.2578
 21
45.2
  0
LINE
  8
0
 10
45.2578
 20
45.2
 11
44.1153
 21
43.0514
  0
LINE
  8
0
 10
44.1153
 20
43.0514
 11
43.8847
 21
43.0514
  0
LINE
  8
0
 10
43.8847
 20
43.0514
 11
42.7422
 21
45.2
  0
LINE
  8
0
 10
42.7422
 20
45.2
 11
42.2578
 21
45.2
  0
LINE
  8
0
 10
42.2578
 20
45.2
 11
41.1153
 21
43.0514
  0
LINE
  8
0
 10
41.1153
 20
43.0514
 11
40.8847
 21
43.0514
  0
LINE
  8
0
 10
40.8847
 20
43.0514
 11
39.7422
 21
45.2
  0
LINE
  8
0
 10
39.7422
 20
45.2
 11
39.2578
 21
45.2
  0
LINE
  8
0
 10
39.2578
 20
45.2
 11
38.1153
 21
43.0514
  0
LINE
  8
0
 10
38.1153
 20
43.0514
 11
37.8847
 21
43.0514
  0
LINE
  8
0
 10
37.8847
 20
43.0514
 11
36.7422
 21
45.2
  0
LINE
  8
0
 10
36.7422
 20
45.2
 11
36.2578
 21
45.2
  0
LINE
  8
0
 10
36.2578
 20
45.2
 11
35.1153
 21
43.0514
  0
LINE
  8
0
 10
35.1153
 20
43.0514
 11
34.8847
 21
43.0514
  0
LINE
  8
0
 10
34.8847
 20
43.0514
 11
33.7422
 21
45.2
  0
LINE
  8
0
 10
33.7422
 20
45.2
 11
33.2578
 21
45.2
  0
LINE
  8
0
 10
33.2578
 20
45.2
 11
32.1153
 21
43.0514
  0
LINE
  8
0
 10
32.1153
 20
43.0514
 11
31.8847
 21
43.0514
  0
LINE
  8
0
 10
31.8847
 20
43.0514
 11
30.7422
 21
45.2
  0
LINE
  8
0
 10
30.7422
 20
45.2
 11
30.2578
 21
45.2
  0
LINE
  8
0
 10
30.2578
 20
45.2
 11
29.1153
 21
43.0514
  0
LINE
  8
0
 10
29.1153
 20
43.0514
 11
28.8847
 21
43.0514
  0
LINE
  8
0
 10
28.8847
 20
43.0514
 11
27.7422
 21
45.2
  0
LINE
  8
0
 10
27.7422
 20
45.2
 11
27.2578
 21
45.2
  0
LINE
  8
0
 10
27.2578
 20
45.2
 11
26.1153
 21
43.0514
  0
LINE
  8
0
 10
26.1153
 20
43.0514
 11
25.8847
 21
43.0514
  0
LINE
  8
0
 10
25.8847
 20
43.0514
 11
24.7422
 21
45.2
  0
LINE
  8
0
 10
24.7422
 20
45.2
 11
24.2578
 21
45.2
  0
LINE
  8
0
 10
24.2578
 20
45.2
 11
23.1153
 21
43.0514
  0
LINE
  8
0
 10
23.1153
 20
43.0514
 11
22.8847
 21
43.0514
  0
LINE
  8
0
 10
22.8847
 20
43.0514
 11
21.7422
 21
45.2
  0
LINE
  8
0
 10
21.7422
 20
45.2
 11
21.2578
 21
45.2
  0
LINE
  8
0
 10
21.2578
 20
45.2
 11
20.1153
 21
43.0514
  0
LINE
  8
0
 10
20.1153
 20
43.0514
 11
20
 21
43.0514
  0
LINE
  8
0
 10
20
 20
43.0514
 11
20
 21
34.2
  0
LINE
  8
0
 10
22
 20
38.2
 11
22.0979
 21
38.818
  0
LINE
  8
0
 10
22.0979
 20
38.818
 11
22.382
 21
39.3756
  0
LINE
  8
0
 10
22.382
 20
39.3756
 11
22.8244
 21
39.818
  0
LINE
  8
0
 10
22.8244
 20
39.818
 11
23.382
 21
40.1021
  0
LINE
  8
0
 10
23.382
 20
40.1021
 11
24
 21
40.2
  0
LINE
  8
0
 10
24
 20
40.2
 11
24.618
 21
40.1021
  0
LINE
  8
0
 10
24.618
 20
40.1021
 11
25.1756
 21
39.818
  0
LINE
  8
0
 10
25.1756
 20
39.818
 11
25.618
 21
39.3756
  0
LINE
  8
0
 10
25.618
 20
39.3756
 11
25.9021
 21
38.818
  0
LINE
  8
0
 10
25.9021
 20
38.818
 11
26
 21
38.2
  0
LINE
  8
0
 10
26
 20
38.2
 11
25.9021
 21
37.582
  0
LINE
  8
0
 10
25.9021
 20
37.582
 11
25.618
 21
37.0244
  0
LINE
  8
0
 10
25.618
 20
37.0244
 11
25.1756
 21
36.582
  0
LINE
  8
0
 10
25.1756
 20
36.582
 11
24.618
 21
36.2979
  0
LINE
  8
0
 10
24.618
 20
36.2979
 11
24
 21
36.2
  0
LINE
  8
0
 10
24
 20
36.2
 11
23.382
 21
36.2979
  0
LINE
  8
0
 10
23.382
 20
36.2979
 11
22.8244
 21
36.582
  0
LINE
  8
0
 10
22.8244
 20
36.582
 11
22.382
 21
37.0244
  0
LINE
  8
0
 10
22.382
 20
37.0244
 11
22.0979
 21
37.582
  0
LINE
  8
0
 10
22.0979
 20
37.582
 11
22
 21
38.2
  0
LINE
  8
0
 10
38
 20
38.2
 11
38.0979
 21
38.818
  0
LINE
  8
0
 10
38.0979
 20
38.818
 11
38.382
 21
39.3756
  0
LINE
  8
0
 10
38.382
 20
39.3756
 11
38.8244
 21
39.818
  0
LINE
  8
0
 10
38.8244
 20
39.818
 11
39.382
 21
40.1021
  0
LINE
  8
0
 10
39.382
 20
40.1021
 11
40
 21
40.2
  0
LINE
  8
0
 10
40
 20
40.2
 11
40.618
 21
40.1021
  0
LINE
  8
0
 10
40.618
 20
40.1021
 11
41.1756
 21
39.818
  0
LINE
  8
0
 10
41.1756
 20
39.818
 11
41.618
 21
39.3756
  0
LINE
  8
0
 10
41.618
 20
39.3756
 11
41.9021
 21
38.818
  0
LINE
  8
0
 10
41.9021
 20
38.818
 11
42
 21
38.2
  0
LINE
  8
0
 10
42
 20
38.2
 11
41.9021
 21
37.582
  0
LINE
  8
0
 10
41.9021
 20
37.582
 11
41.618
 21
37.0244
  0
LINE
  8
0
 10
41.618
 20
37.0244
 11
41.1756
 21
36.582
  0
LINE
  8
0
 10
41.1756
 20
36.582
 11
40.618
 21
36.2979
  0
LINE
  8
0
 10
40.618
 20
36.2979
 11
40
 21
36.2
  0
LINE
  8
0
 10
40
 20
36.2
 11
39.382
 21
36.2979
  0
LINE
  8
0
 10
39.382
 20
36.2979
 11
38.8244
 21
36.582
  0
LINE
  8
0
 10
38.8244
 20
36.582
 11
38.382
 21
37.0244
  0
LINE
  8
0
 10
38.382
 20
37.0244
 11
38.0979
 21
37.582
  0
LINE
  8
0
 10
38.0979
 20
37.582
 11
38
 21
38.2
  0
LINE
  8
0
 10
46
 20
38.2
 11
46.0979
 21
38.818
  0
LINE
  8
0
 10
46.0979
 20
38.818
 11
46.382
 21
39.3756
  0
LINE
  8
0
 10
46.382
 20
39.3756
 11
46.8244
 21
39.818
  0
LINE
  8
0
 10
46.8244
 20
39.818
 11
47.382
 21
40.1021
  0
LINE
  8
0
 10
47.382
 20
40.1021
 11
48
 21
40.2
  0
LINE
  8
0
 10
48
 20
40.2
 11
48.618
 21
40.1021
  0
LINE
  8
0
 10
48.618
 20
40.1021
 11
49.1756
 21
39.818
  0
LINE
  8
0
 10
49.1756
 20
39.818
 11
49.618
 21
39.3756
  0
LINE
  8
0
 10
49.618
 20
39.3756
 11
49.9021
 21
38.818
  0
LINE
  8
0
 10
49.9021
 20
38.818
 11
50
 21
38.2
  0
LINE
  8
0
 10
50
 20
38.2
 11
49.9021
 21
37.582
  0
LINE
  8
0
 10
49.9021
 20
37.582
 11
49.618
 21
37.0244
  0
LINE
  8
0
 10
49.618
 20
37.0244
 11
49.1756
 21
36.582
  0
LINE
  8
0
 10
49.1756
 20
36.582
 11
48.618
 21
36.2979
  0
LINE
  8
0
 10
48.618
 20
36.2979
 11
48
 21
36.2
  0
LINE
  8
0
 10
48
 20
36.2
 11
47.382
 21
36.2979
  0
LINE
  8
0
 10
47.382
 20
36.2979
 11
46.8244
 21
36.582
  0
LINE
  8
0
 10
46.8244
 20
36.582
 11
46.382
 21
37.0244
  0
LINE
  8
0
 10
46.382
 20
37.0244
 11
46.0979
 21
37.582
  0
LINE
  8
0
 10
46.0979
 20
37.582
 11
46
 21
38.2
  0
LINE
  8
0
 10
62
 20
38.2
 11
62.0979
 21
38.818
  0
LINE
  8
0
 10
62.0979
 20
38.818
 11
62.382
 21
39.3756
  0
LINE
  8
0
 10
62.382
 20
39.3756
 11
62.8244
 21
39.818
  0
LINE
  8
0
 10
62.8244
 20
39.818
 11
63.382
 21
40.1021
  0
LINE
  8
0
 10
63.382
 20
40.1021
 11
64
 21
40.2
  0
LINE
  8
0
 10
64
 20
40.2
 11
64.618
 21
40.1021
  0
LINE
  8
0
 10
64.618
 20
40.1021
 11
65.1756
 21
39.818
  0
LINE
  8
0
 10
65.1756
 20
39.818
 11
65.618
 21
39.3756
  0
LINE
  8
0
 10
65.618
 20
39.3756
 11
65.9021
 21
38.818
  0
LINE
  8
0
 10
65.9021
 20
38.818
 11
66
 21
38.2
  0
LINE
  8
0
 10
66
 20
38.2
 11
65.9021
 21
37.582
  0
LINE
  8
0
 10
65.9021
 20
37.582
 11
65.618
 21
37.0244
  0
LINE
  8
0
 10
65.618
 20
37.0244
 11
65.1756
 21
36.582
  0
LINE
  8
0
 10
65.1756
 20
36.582
 11
64.618
 21
36.2979
  0
LINE
  8
0
 10
64.618
 20
36.2979
 11
64
 21
36.2
  0
LINE
  8
0
 10
64
 20
36.2
 11
63.382
 21
36.2979
  0
LINE
  8
0
 10
63.382
 20
36.2979
 11
62.8244
 21
36.582
  0
LINE
  8
0
 10
62.8244
 20
36.582
 11
62.382
 21
37.0244
  0
LINE
  8
0
 10
62.382
 20
37.0244
 11
62.0979
 21
37.582
  0
LINE
  8
0
 10
62.0979
 20
37.582
 11
62
 21
38.2
  0
LINE
  8
0
 10
20
 20
45.6
 11
68
 21
45.6
  0
LINE
  8
0
 10
68
 20
45.6
 11
68
 21
54.4514
  0
LINE
  8
0
 10
68
 20
54.4514
 11
67.8847
 21
54.4514
  0
LINE
  8
0
 10
67.8847
 20
54.4514
 11
66.7422
 21
56.6
  0
LINE
  8
0
 10
66.7422
 20
56.6
 11
66.2578
 21
56.6
  0
LINE
  8
0
 10
66.2578
 20
56.6
 11
65.1153
 21
54.4514
  0
LINE
  8
0
 10
65.1153
 20
54.4514
 11
64.8847
 21
54.4514
  0
LINE
  8
0
 10
64.8847
 20
54.4514
 11
63.7422
 21
56.6
  0
LINE
  8
0
 10
63.7422
 20
56.6
 11
63.2578
 21
56.6
  0
LINE
  8
0
 10
63.2578
 20
56.6
 11
62.1153
 21
54.4514
  0
LINE
  8
0
 10
62.1153
 20
54.4514
 11
61.8847
 21
54.4514
  0
LINE
  8
0
 10
61.8847
 20
54.4514
 11
60.7422
 21
56.6
  0
LINE
  8
0
 10
60.7422
 20
56.6
 11
60.2578
 21
56.6
  0
LINE
  8
0
 10
60.2578
 20
56.6
 11
59.1153
 21
54.4514
  0
LINE
  8
0
 10
59.1153
 20
54.4514
 11
58.8847
 21
54.4514
  0
LINE
  8
0
 10
58.8847
 20
54.4514
 11
57.7422
 21
56.6
  0
LINE
  8
0
 10
57.7422
 20
56.6
 11
57.2578
 21
56.6
  0
LINE
  8
0
 10
57.2578
 20
56.6
 11
56.1153
 21
54.4514
  0
LINE
  8
0
 10
56.1153
 20
54.4514
 11
55.8847
 21
54.4514
  0
LINE
  8
0
 10
55.8847
 20
54.4514
 11
54.7422
 21
56.6
  0
LINE
  8
0
 10
54.7422
 20
56.6
 11
54.2578
 21
56.6
  0
LINE
  8
0
 10
54.2578
 20
56.6
 11
53.1153
 21
54.4514
  0
LINE
  8
0
 10
53.1153
 20
54.4514
 11
52.8847
 21
54.4514
  0
LINE
  8
0
 10
52.8847
 20
54.4514
 11
51.7422
 21
56.6
  0
LINE
  8
0
 10
51.7422
 20
56.6
 11
51.2578
 21
56.6
  0
LINE
  8
0
 10
51.2578
 20
56.6
 11
50.1153
 21
54.4514
  0
LINE
  8
0
 10
50.1153
 20
54.4514
 11
49.8847
 21
54.4514
  0
LINE
  8
0
 10
49.8847
 20
54.4514
 11
48.7422
 21
56.6
  0
LINE
  8
0
 10
48.7422
 20
56.6
 11
48.2578
 21
56.6
  0
LINE
  8
0
 10
48.2578
 20
56.6
 11
47.1153
 21
54.4514
  0
LINE
  8
0
 10
47.1153
 20
54.4514
 11
46.8847
 21
54.4514
  0
LINE
  8
0
 10
46.8847
 20
54.4514
 11
45.7422
 21
56.6
  0
LINE
  8
0
 10
45.7422
 20
56.6
 11
45.2578
 21
56.6
  0
LINE
  8
0
 10
45.2578
 20
56.6
 11
44.1153
 21
54.4514
  0
LINE
  8
0
 10
44.1153
 20
54.4514
 11
43.8847
 21
54.4514
  0
LINE
  8
0
 10
43.8847
 20
54.4514
 11
42.7422
 21
56.6
  0
LINE
  8
0
 10
42.7422
 20
56.6
 11
42.2578
 21
56.6
  0
LINE
  8
0
 10
42.2578
 20
56.6
 11
41.1153
 21
54.4514
  0
LINE
  8
0
 10
41.1153
 20
54.4514
 11
40.8847
 21
54.4514
  0
LINE
  8
0
 10
40.8847
 20
54.4514
 11
39.7422
 21
56.6
  0
LINE
  8
0
 10
39.7422
 20
56.6
 11
39.2578
 21
56.6
  0
LINE
  8
0
 10
39.2578
 20
56.6
 11
38.1153
 21
54.4514
  0
LINE
  8
0
 10
38.1153
 20
54.4514
 11
37.8847
 21
54.4514
  0
LINE
  8
0
 10
37.8847
 20
54.4514
 11
36.7422
 21
56.6
  0
LINE
  8
0
 10
36.7422
 20
56.6
 11
36.2578
 21
56.6
  0
LINE
  8
0
 10
36.2578
 20
56.6
 11
35.1153
 21
54.4514
  0
LINE
  8
0
 10
35.1153
 20
54.4514
 11
34.8847
 21
54.4514
  0
LINE
  8
0
 10
34.8847
 20
54.4514
 11
33.7422
 21
56.6
  0
LINE
  8
0
 10
33.7422
 20
56.6
 11
33.2578
 21
56.6
  0
LINE
  8
0
 10
33.2578
 20
56.6
 11
32.1153
 21
54.4514
  0
LINE
  8
0
 10
32.1153
 20
54.4514
 11
31.8847
 21
54.4514
  0
LINE
  8
0
 10
31.8847
 20
54.4514
 11
30.7422
 21
56.6
  0
LINE
  8
0
 10
30.7422
 20
56.6
 11
30.2578
 21
56.6
  0
LINE
  8
0
 10
30.2578
 20
56.6
 11
29.1153
 21
54.4514
  0
LINE
  8
0
 10
29.1153
 20
54.4514
 11
28.8847
 21
54.4514
  0
LINE
  8
0
 10
28.8847
 20
54.4514
 11
27.7422
 21
56.6
  0
LINE
  8
0
 10
27.7422
 20
56.6
 11
27.2578
 21
56.6
  0
LINE
  8
0
 10
27.2578
 20
56.6
 11
26.1153
 21
54.4514
  0
LINE
  8
0
 10
26.1153
 20
54.4514
 11
25.8847
 21
54.4514
  0
LINE
  8
0
 10
25.8847
 20
54.4514
 11
24.7422
 21
56.6
  0
LINE
  8
0
 10
24.7422
 20
56.6
 11
24.2578
 21
56.6
  0
LINE
  8
0
 10
24.2578
 20
56.6
 11
23.1153
 21
54.4514
  0
LINE
  8
0
 10
23.1153
 20
54.4514
 11
22.8847
 21
54.4514
  0
LINE
  8
0
 10
22.8847
 20
54.4514
 11
21.7422
 21
56.6
  0
LINE
  8
0
 10
21.7422
 20
56.6
 11
21.2578
 21
56.6
  0
LINE
  8
0
 10
21.2578
 20
56.6
 11
20.1153
 21
54.4514
  0
LINE
  8
0
 10
20.1153
 20
54.4514
 11
20
 21
54.4514
  0
LINE
  8
0
 10
20
 20
54.4514
 11
20
 21
45.6
  0
LINE
  8
0
 10
22
 20
49.6
 11
22.0979
 21
50.218
  0
LINE
  8
0
 10
22.0979
 20
50.218
 11
22.382
 21
50.7756
  0
LINE
  8
0
 10
22.382
 20
50.7756
 11
22.8244
 21
51.218
  0
LINE
  8
0
 10
22.8244
 20
51.218
 11
23.382
 21
51.5021
  0
LINE
  8
0
 10
23.382
 20
51.5021
 11
24
 21
51.6
  0
LINE
  8
0
 10
24
 20
51.6
 11
24.618
 21
51.5021
  0
LINE
  8
0
 10
24.618
 20
51.5021
 11
25.1756
 21
51.218
  0
LINE
  8
0
 10
25.1756
 20
51.218
 11
25.618
 21
50.7756
  0
LINE
  8
0
 10
25.618
 20
50.7756
 11
25.9021
 21
50.218
  0
LINE
  8
0
 10
25.9021
 20
50.218
 11
26
 21
49.6
  0
LINE
  8
0
 10
26
 20
49.6
 11
25.9021
 21
48.982
  0
LINE
  8
0
 10
25.9021
 20
48.982
 11
25.618
 21
48.4244
  0
LINE
  8
0
 10
25.618
 20
48.4244
 11
25.1756
 21
47.982
  0
LINE
  8
0
 10
25.1756
 20
47.982
 11
24.618
 21
47.6979
  0
LINE
  8
0
 10
24.618
 20
47.6979
 11
24
 21
47.6
  0
LINE
  8
0
 10
24
 20
47.6
 11
23.382
 21
47.6979
  0
LINE
  8
0
 10
23.382
 20
47.6979
 11
22.8244
 21
47.982
  0
LINE
  8
0
 10
22.8244
 20
47.982
 11
22.382
 21
48.4244
  0
LINE
  8
0
 10
22.382
 20
48.4244
 11
22.0979
 21
48.982
  0
LINE
  8
0
 10
22.0979
 20
48.982
 11
22
 21
49.6
  0
LINE
  8
0
 10
38
 20
49.6
 11
38.0979
 21
50.218
  0
LINE
  8
0
 10
38.0979
 20
50.218
 11
38.382
 21
50.7756
  0
LINE
  8
0
 10
38.382
 20
50.7756
 11
38.8244
 21
51.218
  0
LINE
  8
0
 10
38.8244
 20
51.218
 11
39.382
 21
51.5021
  0
LINE
  8
0
 10
39.382
 20
51.5021
 11
40
 21
51.6
  0
LINE
  8
0
 10
40
 20
51.6
 11
40.618
 21
51.5021
  0
LINE
  8
0
 10
40.618
 20
51.5021
 11
41.1756
 21
51.218
  0
LINE
  8
0
 10
41.1756
 20
51.218
 11
41.618
 21
50.7756
  0
LINE
  8
0
 10
41.618
 20
50.7756
 11
41.9021
 21
50.218
  0
LINE
  8
0
 10
41.9021
 20
50.218
 11
42
 21
49.6
  0
LINE
  8
0
 10
42
 20
49.6
 11
41.9021
 21
48.982
  0
LINE
  8
0
 10
41.9021
 20
48.982
 11
41.618
 21
48.4244
  0
LINE
  8
0
 10
41.618
 20
48.4244
 11
41.1756
 21
47.982
  0
LINE
  8
0
 10
41.1756
 20
47.982
 11
40.618
 21
47.6979
  0
LINE
  8
0
 10
40.618
 20
47.6979
 11
40
 21
47.6
  0
LINE
  8
0
 10
40
 20
47.6
 11
39.382
 21
47.6979
  0
LINE
  8
0
 10
39.382
 20
47.6979
 11
38.8244
 21
47.982
  0
LINE
  8
0
 10
38.8244
 20
47.982
 11
38.382
 21
48.4244
  0
LINE
  8
0
 10
38.382
 20
48.4244
 11
38.0979
 21
48.982
  0
LINE
  8
0
 10
38.0979
 20
48.982
 11
38
 21
49.6
  0
LINE
  8
0
 10
46
 20
49.6
 11
46.0979
 21
50.218
  0
LINE
  8
0
 10
46.0979
 20
50.218
 11
46.382
 21
50.7756
  0
LINE
  8
0
 10
46.382
 20
50.7756
 11
46.8244
 21
51.218
  0
LINE
  8
0
 10
46.8244
 20
51.218
 11
47.382
 21
51.5021
  0
LINE
  8
0
 10
47.382
 20
51.5021
 11
48
 21
51.6
  0
LINE
  8
0
 10
48
 20
51.6
 11
48.618
 21
51.5021
  0
LINE
  8
0
 10
48.618
 20
51.5021
 11
49.1756
 21
51.218
  0
LINE
  8
0
 10
49.1756
 20
51.218
 11
49.618
 21
50.7756
  0
LINE
  8
0
 10
49.618
 20
50.7756
 11
49.9021
 21
50.218
  0
LINE
  8
0
 10
49.9021
 20
50.218
 11
50
 21
49.6
  0
LINE
  8
0
 10
50
 20
49.6
 11
49.9021
 21
48.982
  0
LINE
  8
0
 10
49.9021
 20
48.982
 11
49.618
 21
48.4244
  0
LINE
  8
0
 10
49.618
 20
48.4244
 11
49.1756
 21
47.982
  0
LINE
  8
0
 10
49.1756
 20
47.982
 11
48.618
 21
47.6979
  0
LINE
  8
0
 10
48.618
 20
47.6979
 11
48
 21
47.6
  0
LINE
  8
0
 10
48
 20
47.6
 11
47.382
 21
47.6979
  0
LINE
  8
0
 10
47.382
 20
47.6979
 11
46.8244
 21
47.982
  0
LINE
  8
0
 10
46.8244
 20
47.982
 11
46.382
 21
48.4244
  0
LINE
  8
0
 10
46.382
 20
48.4244
 11
46.0979
 21
48.982
  0
LINE
  8
0
 10
46.0979
 20
48.982
 11
46
 21
49.6
  0
LINE
  8
0
 10
62
 20
49.6
 11
62.0979
 21
50.218
  0
LINE
  8
0
 10
62.0979
 20
50.218
 11
62.382
 21
50.7756
  0
LINE
  8
0
 10
62.382
 20
50.7756
 11
62.8244
 21
51.218
  0
LINE
  8
0
 10
62.8244
 20
51.218
 11
63.382
 21
51.5021
  0
LINE
  8
0
 10
63.382
 20
51.5021
 11
64
 21
51.6
  0
LINE
  8
0
 10
64
 20
51.6
 11
64.618
 21
51.5021
  0
LINE
  8
0
 10
64.618
 20
51.5021
 11
65.1756
 21
51.218
  0
LINE
  8
0
 10
65.1756
 20
51.218
 11
65.618
 21
50.7756
  0
LINE
  8
0
 10
65.618
 20
50.7756
 11
65.9021
 21
50.218
  0
LINE
  8
0
 10
65.9021
 20
50.218
 11
66
 21
49.6
  0
LINE
  8
0
 10
66
 20
49.6
 11
65.9021
 21
48.982
  0
LINE
  8
0
 10
65.9021
 20
48.982
 11
65.618
 21
48.4244
  0
LINE
  8
0
 10
65.618
 20
48.4244
 11
65.1756
 21
47.982
  0
LINE
  8
0
 10
65.1756
 20
47.982
 11
64.618
 21
47.6979
  0
LINE
  8
0
 10
64.618
 20
47.6979
 11
64
 21
47.6
  0
LINE
  8
0
 10
64
 20
47.6
 11
63.382
 21
47.6979
  0
LINE
  8
0
 10
63.382
 20
47.6979
 11
62.8244
 21
47.982
  0
LINE
  8
0
 10
62.8244
 20
47.982
 11
62.382
 21
48.4244
  0
LINE
  8
0
 10
62.382
 20
48.4244
 11
62.0979
 21
48.982
  0
LINE
  8
0
 10
62.0979
 20
48.982
 11
62
 21
49.6
  0
LINE
  8
0
 10
20
 20
57
 11
68
 21
57
  0
LINE
  8
0
 10
68
 20
57
 11
68
 21
65.8514
  0
LINE
  8
0
 10
68
 20
65.8514
 11
67.8847
 21
65.8514
  0
LINE
  8
0
 10
67.8847
 20
65.8514
 11
66.7422
 21
68
  0
LINE
  8
0
 10
66.7422
 20
68
 11
66.2578
 21
68
  0
LINE
  8
0
 10
66.2578
 20
68
 11
65.1153
 21
65.8514
  0
LINE
  8
0
 10
65.1153
 20
65.8514
 11
64.8847
 21
65.8514
  0
LINE
  8
0
 10
64.8847
 20
65.8514
 11
63.7422
 21
68
  0
LINE
  8
0
 10
63.7422
 20
68
 11
63.2578
 21
68
  0
LINE
  8
0
 10
63.2578
 20
68
 11
62.1153
 21
65.8514
  0
LINE
  8
0
 10
62.1153
 20
65.8514
 11
61.8847
 21
65.8514
  0
LINE
  8
0
 10
61.8847
 20
65.8514
 11
60.7422
 21
68
  0
LINE
  8
0
 10
60.7422
 20
68
 11
60.2578
 21
68
  0
LINE
  8
0
 10
60.2578
 20
68
 11
59.1153
 21
65.8514
  0
LINE
  8
0
 10
59.1153
 20
65.8514
 11
58.8847
 21
65.8514
  0
LINE
  8
0
 10
58.8847
 20
65.8514
 11
57.7422
 21
68
  0
LINE
  8
0
 10
57.7422
 20
68
 11
57.2578
 21
68
  0
LINE
  8
0
 10
57.2578
 20
68
 11
56.1153
 21
65.8514
  0
LINE
  8
0
 10
56.1153
 20
65.8514
 11
55.8847
 21
65.8514
  0
LINE
  8
0
 10
55.8847
 20
65.8514
 11
54.7422
 21
68
  0
LINE
  8
0
 10
54.7422
 20
68
 11
54.2578
 21
68
  0
LINE
  8
0
 10
54.2578
 20
68
 11
53.1153
 21
65.8514
  0
LINE
  8
0
 10
53.1153
 20
65.8514
 11
52.8847
 21
65.8514
  0
LINE
  8
0
 10
52.8847
 20
65.8514
 11
51.7422
 21
68
  0
LINE
  8
0
 10
51.7422
 20
68
 11
51.2578
 21
68
  0
LINE
  8
0
 10
51.2578
 20
68
 11
50.1153
 21
65.8514
  0
LINE
  8
0
 10
50.1153
 20
65.8514
 11
49.8847
 21
65.8514
  0
LINE
  8
0
 10
49.8847
 20
65.8514
 11
48.7422
 21
68
  0
LINE
  8
0
 10
48.7422
 20
68
 11
48.2578
 21
68
  0
LINE
  8
0
 10
48.2578
 20
68
 11
47.1153
 21
65.8514
  0
LINE
  8
0
 10
47.1153
 20
65.8514
 11
46.8847
 21
65.8514
  0
LINE
  8
0
 10
46.8847
 20
65.8514
 11
45.7422
 21
68
  0
LINE
  8
0
 10
45.7422
 20
68
 11
45.2578
 21
68
  0
LINE
  8
0
 10
45.2578
 20
68
 11
44.1153
 21
65.8514
  0
LINE
  8
0
 10
44.1153
 20
65.8514
 11
43.8847
 21
65.8514
  0
LINE
  8
0
 10
43.8847
 20
65.8514
 11
42.7422
 21
68
  0
LINE
  8
0
 10
42.7422
 20
68
 11
42.2578
 21
68
  0
LINE
  8
0
 10
42.2578
 20
68
 11
41.1153
 21
65.8514
  0
LINE
  8
0
 10
41.1153
 20
65.8514
 11
40.8847
 21
65.8514
  0
LINE
  8
0
 10
40.8847
 20
65.8514
 11
39.7422
 21
68
  0
LINE
  8
0
 10
39.7422
 20
68
 11
39.2578
 21
68
  0
LINE
  8
0
 10
39.2578
 20
68
 11
38.1153
 21
65.8514
  0
LINE
  8
0
 10
38.1153
 20
65.8514
 11
37.8847
 21
65.8514
  0
LINE
  8
0
 10
37.8847
 20
65.8514
 11
36.7422
 21
68
  0
LINE
  8
0
 10
36.7422
 20
68
 11
36.2578
 21
68
  0
LINE
  8
0
 10
36.2578
 20
68
 11
35.1153
 21
65.8514
  0
LINE
  8
0
 10
35.1153
 20
65.8514
 11
34.8847
 21
65.8514
  0
LINE
  8
0
 10
34.8847
 20
65.8514
 11
33.7422
 21
68
  0
LINE
  8
0
 10
33.7422
 20
68
 11
33.2578
 21
68
  0
LINE
  8
0
 10
33.2578
 20
68
 11
32.1153
 21
65.8514
  0
LINE
  8
0
 10
32.1153
 20
65.8514
 11
31.8847
 21
65.8514
  0
LINE
  8
0
 10
31.8847
 20
65.8514
 11
30.7422
 21
68
  0
LINE
  8
0
 10
30.7422
 20
68
 11
30.2578
 21
68
  0
LINE
  8
0
 10
30.2578
 20
68
 11
29.1153
 21
65.8514
  0
LINE
  8
0
 10
29.1153
 20
65.8514
 11
28.8847
 21
65.8514
  0
LINE
  8
0
 10
28.8847
 20
65.8514
 11
27.7422
 21
68
  0
LINE
  8
0
 10
27.7422
 20
68
 11
27.2578
 21
68
  0
LINE
  8
0
 10
27.2578
 20
68
 11
26.1153
 21
65.8514
  0
LINE
  8
0
 10
26.1153
 20
65.8514
 11
25.8847
 21
65.8514
  0
LINE
  8
0
 10
25.8847
 20
65.8514
 11
24.7422
 21
68
  0
LINE
  8
0
 10
24.7422
 20
68
 11
24.2578
 21
68
  0
LINE
  8
0
 10
24.2578
 20
68
 11
23.1153
 21
65.8514
  0
LINE
  8
0
 10
23.1153
 20
65.8514
 11
22.8847
 21
65.8514
  0
LINE
  8
0
 10
22.8847
 20
65.8514
 11
21.7422
 21
68
  0
LINE
  8
0
 10
21.7422
 20
68
 11
21.2578
 21
68
  0
LINE
  8
0
 10
21.2578
 20
68
 11
20.1153
 21
65.8514
  0
LINE
  8
0
 10
20.1153
 20
65.8514
 11
20
 21
65.8514
  0
LINE
  8
0
 10
20
 20
65.8514
 11
20
 21
57
  0
LINE
  8
0
 10
22
 20
61
 11
22.0979
 21
61.618
  0
LINE
  8
0
 10
22.0979
 20
61.618
 11
22.382
 21
62.1756
  0
LINE
  8
0
 10
22.382
 20
62.1756
 11
22.8244
 21
62.618
  0
LINE
  8
0
 10
22.8244
 20
62.618
 11
23.382
 21
62.9021
  0
LINE
  8
0
 10
23.382
 20
62.9021
 11
24
 21
63
  0
LINE
  8
0
 10
24
 20
63
 11
24.618
 21
62.9021
  0
LINE
  8
0
 10
24.618
 20
62.9021
 11
25.1756
 21
62.618
  0
LINE
  8
0
 10
25.1756
 20
62.618
 11
25.618
 21
62.1756
  0
LINE
  8
0
 10
25.618
 20
62.1756
 11
25.9021
 21
61.618
  0
LINE
  8
0
 10
25.9021
 20
61.618
 11
26
 21
61
  0
LINE
  8
0
 10
26
 20
61
 11
25.9021
 21
60.382
  0
LINE
  8
0
 10
25.9021
 20
60.382
 11
25.618
 21
59.8244
  0
LINE
  8
0
 10
25.618
 20
59.8244
 11
25.1756
 21
59.382
  0
LINE
  8
0
 10
25.1756
 20
59.382
 11
24.618
 21
59.0979
  0
LINE
  8
0
 10
24.618
 20
59.0979
 11
24
 21
59
  0
LINE
  8
0
 10
24
 20
59
 11
23.382
 21
59.0979
  0
LINE
  8
0
 10
23.382
 20
59.0979
 11
22.8244
 21
59.382
  0
LINE
  8
0
 10
22.8244
 20
59.382
 11
22.382
 21
59.8244
  0
LINE
  8
0
 10
22.382
 20
59.8244
 11
22.0979
 21
60.382
  0
LINE
  8
0
 10
22.0979
 20
60.382
 11
22
 21
61
  0
LINE
  8
0
 10
38
 20
61
 11
38.0979
 21
61.618
  0
LINE
  8
0
 10
38.0979
 20
61.618
 11
38.382
 21
62.1756
  0
LINE
  8
0
 10
38.382
 20
62.1756
 11
38.8244
 21
62.618
  0
LINE
  8
0
 10
38.8244
 20
62.618
 11
39.382
 21
62.9021
  0
LINE
  8
0
 10
39.382
 20
62.9021
 11
40
 21
63
  0
LINE
  8
0
 10
40
 20
63
 11
40.618
 21
62.9021
  0
LINE
  8
0
 10
40.618
 20
62.9021
 11
41.1756
 21
62.618
  0
LINE
  8
0
 10
41.1756
 20
62.618
 11
41.618
 21
62.1756
  0
LINE
  8
0
 10
41.618
 20
62.1756
 11
41.9021
 21
61.618
  0
LINE
  8
0
 10
41.9021
 20
61.618
 11
42
 21
61
  0
LINE
  8
0
 10
42
 20
61
 11
41.9021
 21
60.382
  0
LINE
  8
0
 10
41.9021
 20
60.382
 11
41.618
 21
59.8244
  0
LINE
  8
0
 10
41.618
 20
59.8244
 11
41.1756
 21
59.382
  0
LINE
  8
0
 10
41.1756
 20
59.382
 11
40.618
 21
59.0979
  0
LINE
  8
0
 10
40.618
 20
59.0979
 11
40
 21
59
  0
LINE
  8
0
 10
40
 20
59
 11
39.382
 21
59.0979
  0
LINE
  8
0
 10
39.382
 20
59.0979
 11
38.8244
 21
59.382
  0
LINE
  8
0
 10
38.8244
 20
59.382
 11
38.382
 21
59.8244
  0
LINE
  8
0
 10
38.382
 20
59.8244
 11
38.0979
 21
60.382
  0
LINE
  8
0
 10
38.0979
 20
60.382
 11
38
 21
61
  0
LINE
  8
0
 10
46
 20
61
 11
46.0979
 21
61.618
  0
LINE
  8
0
 10
46.0979
 20
61.618
 11
46.382
 21
62.1756
  0
LINE
  8
0
 10
46.382
 20
62.1756
 11
46.8244
 21
62.618
  0
LINE
  8
0
 10
46.8244
 20
62.618
 11
47.382
 21
62.9021
  0
LINE
  8
0
 10
47.382
 20
62.9021
 11
48
 21
63
  0
LINE
  8
0
 10
48
 20
63
 11
48.618
 21
62.9021
  0
LINE
  8
0
 10
48.618
 20
62.9021
 11
49.1756
 21
62.618
  0
LINE
  8
0
 10
49.1756
 20
62.618
 11
49.618
 21
62.1756
  0
LINE
  8
0
 10
49.618
 20
62.1756
 11
49.9021
 21
61.618
  0
LINE
  8
0
 10
49.9021
 20
61.618
 11
50
 21
61
  0
LINE
  8
0
 10
50
 20
61
 11
49.9021
 21
60.382
  0
LINE
  8
0
 10
49.9021
 20
60.382
 11
49.618
 21
59.8244
  0
LINE
  8
0
 10
49.618
 20
59.8244
 11
49.1756
 21
59.382
  0
LINE
  8
0
 10
49.1756
 20
59.382
 11
48.618
 21
59.0979
  0
LINE
  8
0
 10
48.618
 20
59.0979
 11
48
 21
59
  0
LINE
  8
0
 10
48
 20
59
 11
47.382
 21
59.0979
  0
LINE
  8
0
 10
47.382
 20
59.0979
 11
46.8244
 21
59.382
  0
LINE
  8
0
 10
46.8244
 20
59.382
 11
46.382
 21
59.8244
  0
LINE
  8
0
 10
46.382
 20
59.8244
 11
46.0979
 21
60.382
  0
LINE
  8
0
 10
46.0979
 20
60.382
 11
46
 21
61
  0
LINE
  8
0
 10
62
 20
61
 11
62.0979
 21
61.618
  0
LINE
  8
0
 10
62.0979
 20
61.618
 11
62.382
 21
62.1756
  0
LINE
  8
0
 10
62.382
 20
62.1756
 11
62.8244
 21
62.618
  0
LINE
  8
0
 10
62.8244
 20
62.618
 11
63.382
 21
62.9021
  0
LINE
  8
0
 10
63.382
 20
62.9021
 11
64
 21
63
  0
LINE
  8
0
 10
64
 20
63
 11
64.618
 21
62.9021
  0
LINE
  8
0
 10
64.618
 20
62.9021
 11
65.1756
 21
62.618
  0
LINE
  8
0
 10
65.1756
 20
62.618
 11
65.618
 21
62.1756
  0
LINE
  8
0
 10
65.618
 20
62.1756
 11
65.9021
 21
61.618
  0
LINE
  8
0
 10
65.9021
 20
61.618
 11
66
 21
61
  0
LINE
  8
0
 10
66
 20
61
 11
65.9021
 21
60.382
  0
LINE
  8
0
 10
65.9021
 20
60.382
 11
65.618
 21
59.8244
  0
LINE
  8
0
 10
65.618
 20
59.8244
 11
65.1756
 21
59.382
  0
LINE
  8
0
 10
65.1756
 20
59.382
 11
64.618
 21
59.0979
  0
LINE
  8
0
 10
64.618
 20
59.0979
 11
64
 21
59
  0
LINE
  8
0
 10
64
 20
59
 11
63.382
 21
59.0979
  0
LINE
  8
0
 10
63.382
 20
59.0979
 11
62.8244
 21
59.382
  0
LINE
  8
0
 10
62.8244
 20
59.382
 11
62.382
 21
59.8244
  0
LINE
  8
0
 10
62.382
 20
59.8244
 11
62.0979
 21
60.382
  0
LINE
  8
0
 10
62.0979
 20
60.382
 11
62
 21
61
  0
ENDSEC
  0
SECTION
  2
OBJECTS
  0
DICTIONARY
  0
ENDSEC
  0
EOF
